<svg xmlns="http://www.w3.org/2000/svg" viewBox="0 0 566.63 300.21"><defs><style>.cls-1{fill:none;stroke:#000;stroke-linecap:round;stroke-linejoin:round;stroke-width:0.21px;}</style></defs><g id="Layer_2" data-name="Layer 2"><g id="Layer_1-2" data-name="Layer 1"><path class="cls-1" d="M532.93,209.92c1.11-7.86,2.74-15.62,4.25-23.4a17,17,0,0,0-1.62-9.93c-1.16-2.51-2.22-5.05-5-6.32a12.52,12.52,0,0,0-5.26-1.3c-6.82,0-13.65-.15-20.47.05-7.63.22-15.21-.63-22.83-.63-4,0-8-1.17-12.07-1.59a63.73,63.73,0,0,0-11.81.37c-3.83.31-7.16,1.94-10.59,3.75-3.1,1.63-6.94,1.8-10.4,2.8-6.78,2-13.13,4.8-18.38,9.69a23.17,23.17,0,0,0-5.28,7.86c-4.44,10-9.18,19.95-15.7,28.89a14.63,14.63,0,0,1-4.48,4.45"/><path class="cls-1" d="M386.75,225.14a21.39,21.39,0,0,1,3.87-5.37c1.09,2,1.18,3.19-.24,4.25-1.15.87-1.73,2.46-3.36,2.69-.93.13-.5.75-.6,1.3-.15.89,0,1.78-.21,2.63-.38,1.74-.41,3.46-1.74,5.06-2.5,3-2.25,6.52-.57,9.89a6.12,6.12,0,0,1,.75,3.43c-.34,3.53.75,7,.53,10.5a31.49,31.49,0,0,1-.45,5.53c-.81,3.41.92,5.35,4.38,4.9,2.78-.36,5.46-1.05,7.66-3.3,7.27-7.43,12.85-15.77,15.12-26a2.38,2.38,0,0,1,1.92-1.75,64.29,64.29,0,0,1,9.17-2.63,8.83,8.83,0,0,1,7.06,1.52c2.35,1.79,4.84,3,7.89,2.61"/><path class="cls-1" d="M537.65,213.33c3.31,1.58,4,4.89,4.94,7.89a38.8,38.8,0,0,1,.85,5.23,2.7,2.7,0,0,1-1.07,2.87c-8,5.72-12.11,13.81-14.46,23.1a59.65,59.65,0,0,0-1.94,20c.39,4.45.28,9,1.19,13.39"/><path class="cls-1" d="M526.89,275c1-2,.66-4.22,1.26-6.31a144.26,144.26,0,0,1,8.75-21.75c2.42-5.09,5.2-10,7.83-15,2.72,1.88,4,4.81,5.76,7.41a2.13,2.13,0,0,1,.35,2.11c-2.48,7.27-1.83,14.44,1,21.5a28.39,28.39,0,0,0,3.43,6.55c4.89,6.58,3,11.1-.81,17.06-.81,1.27-1.74,2.46-2.61,3.68"/><path class="cls-1" d="M452.89,224.35c.23,1.11-1.16,1.57-1,2.91a6.67,6.67,0,0,0,4.95,1.52c6.24-.43,12.09,1.78,18.13,2.52,5.61.68,11.35,2.38,17,.34,1.14-.41,1.65.28,2.37.61a49.73,49.73,0,0,0,4.49,2.27c1.3.44,2.73,1,4.18.33"/><path class="cls-1" d="M525.06,232.49a6.68,6.68,0,0,1-3.92,7.65c-1.4.6-2.47-.23-3.69-.3-12.13-.71-22.43,5.19-25.74,18.62a37.36,37.36,0,0,0-1.07,6.57,3.2,3.2,0,0,0,2.68,3.6c6.79,1.24,11.87,5.61,17.26,9.32,2.69,1.86,5.7,3.43,7.65,6.24"/><path class="cls-1" d="M491.47,268.18a4.18,4.18,0,0,0-2,2.56,49,49,0,0,0,17.7,13.71,74.65,74.65,0,0,0,16.27,5.25"/><path class="cls-1" d="M493.3,269c3.6,5,8.54,8.51,13.64,11.83A28.38,28.38,0,0,0,519.81,285"/><path class="cls-1" d="M451.84,227.76c-2.07,3-2.61,6.61-3.62,10-1.47,4.92-2.58,9.94-3.84,14.91-1.05,4.12-1.69,8.32-3,12.38-.67,2.1-1.67,3.64-3.72,4.45"/><path class="cls-1" d="M512.72,223.83c-1.4-3.49-.15-6.68,1.39-9.68.83-1.63,4.76-2,6.76-1.37a47.18,47.18,0,0,1,15,8.11c1,.79,1.44,1.89,2.33,2.67"/><path class="cls-1" d="M431.63,259.52c-2.65,4.19-7.13,6.77-9.87,10.83a2.15,2.15,0,0,0,3,.7c4.24-2.33,7.3-5.46,7.1-10.75-.12-3,1.43-5.65,1.73-8.64a57.51,57.51,0,0,0,.1-10"/><path class="cls-1" d="M391.21,224.09c1.73,1.09,3.57,2,5.28,3.1,2.9,1.92,6.09,3,9.69,2.18a16.17,16.17,0,0,1,3.41,0"/><path class="cls-1" d="M542.9,228c-1.36-1.19-2.89-.82-4.46-.54-3.7.67-7.05,2.31-10.51,3.66a16.93,16.93,0,0,0-5.78,3.42,6.34,6.34,0,0,1-4.18,1.57c-2.88.15-5.73.92-8.67.33-1.2-.24-2.32.12-2.09,1.8"/><path class="cls-1" d="M538.44,218.58c-.2-5.35-1.43-7.05-6.3-8.66-2.81-.94-3-1.65-2.14-4.48.73-2.34.89-4.81-1-6.79a3,3,0,0,1-1.06-2.38c.07-1.88-.27-3.78-2.34-4.41s-3.09,1-4.21,2.08c.21,2,2,3,2.39,4.69"/><path class="cls-1" d="M436.88,221.73a23.16,23.16,0,0,1,1.62,7.6,92.54,92.54,0,0,1-.38,17.06,38.46,38.46,0,0,1-5.2,16c-.11.18-.5.19-.77.28"/><path class="cls-1" d="M550.78,290.75h15.74"/><path class="cls-1" d="M529.52,208.6c-1.19.52-2.91.05-3.61,2.16,5.44.82,8.71,4.86,12.5,8.11a2.56,2.56,0,0,1,1.08,2.33"/><path class="cls-1" d="M521.12,225.92a7,7,0,0,1-3.26,2.31c-.08,0-.23-.32-.44-.72-2.1-4.18-3.81-4.4-7.35-1.35a29,29,0,0,0-6,7.37c-1.61,2.73-.78,4.37,2.36,4.74a13.22,13.22,0,0,1,1.84.51"/><path class="cls-1" d="M516.13,198.89c1.49,1.21,3.39.11,5,1a21.37,21.37,0,0,1,3,1.57c-1,.85-2.3.79-2.81,1.93"/><path class="cls-1" d="M433.73,267.13c1.63,1,3.6,1.53,4.25,3.62-3,2.77-4.66,1.83-10.27,1.36-.39-1,.87-1.64.51-2.62"/><path class="cls-1" d="M524.27,202.31c1.45,1.66-.36,3.13-.27,4.68-1.31.34-1.64-.51-1.83-1.54"/><path class="cls-1" d="M521.12,194.43c-3-.53-4.44.61-5.51,4.2"/><path class="cls-1" d="M521.12,230.12c-2.63.38-4.92,1.8-7.59,2.25a6.18,6.18,0,0,0-4.22,3.79"/><path class="cls-1" d="M524.27,207.55c.78,1.3,1.08,2.08-1,2.48-1.3.26-3.3-.29-4,1.72"/><path class="cls-1" d="M515.35,199.16c-1,.7-.52,1.8-.46,2.62.1,1.55.27,1.54-.71,3.07,2.56,1.44,1.39,5.15,4.05,6.64"/><path class="cls-1" d="M521.65,224.35c-.8,1.89.28,3.82-.12,5.8-.18.91,1.34,2,2.74,2.07"/><path class="cls-1" d="M517.18,228.29,514,231.7"/><path class="cls-1" d="M352.3,260.12c.24,2.33.55,4.65.69,7a59.44,59.44,0,0,0,2.24,12.34,24.56,24.56,0,0,1,1,5.48c.11,2.84-.82,5-4.5,5.48a38.22,38.22,0,0,1-11.64-.62c-1.79-.32-2.63-1.6-2.68-3.47a28.44,28.44,0,0,1,1.19-7.79c1.18-4.73,2.52-9.41,3.84-14.1a5.14,5.14,0,0,0,.25-1.28c0-.88.54-1.25,1-1.75"/><path class="cls-1" d="M360.57,260.58c1.5,1.59,1.09,3.63,1.12,5.48.09,5.35,0,10.71-.1,16.07,0,1.74-.08,3.49-.08,5.24s.63,2.5,2.32,2.79a16.56,16.56,0,0,0,2.33.23q4.79.09,9.55.12c7.11.05,14.21,0,21.31.15,2.49,0,5,0,7.46.09H541.85"/><path class="cls-1" d="M371.75,213.65a4.75,4.75,0,0,0-3.73-.37,14,14,0,0,0-5.47,1.88c-1.77,1.22-1.78,2.49,0,3.73a8.82,8.82,0,0,0,4,1.28,24.37,24.37,0,0,0,9.55-.13,12.45,12.45,0,0,0,2.67-.94c1.49-.77,2.61-1.3,1.66-3.83a26.51,26.51,0,0,0-2.83-5.11c-3.84-5.84-7.8-11.62-11.6-17.5a4.9,4.9,0,0,0-4-2.57c-1.56-.12-3.1-.52-4.66-.78a3.08,3.08,0,0,0-2.44.7,6.81,6.81,0,0,0-.93.93c-1.86,2.15-4.16,2.21-6.65,1.46-.15-.05-.31-.08-.46-.12"/><path class="cls-1" d="M353.53,205c0,.66.45.59.87.58,5.75-.19,11,1.82,16.19,3.84a13.87,13.87,0,0,1,3.74,2c-1,1-2.12.75-3.16.69a51.59,51.59,0,0,1-15.72-3.6,18.09,18.09,0,0,1-3.61-1.85"/><path class="cls-1" d="M337.4,180.46c0-.58.21-.81.81-1a17.51,17.51,0,0,1,7.69-.34,68,68,0,0,1,7.33,1.91c2.4.73,4.76,1.62,7.1,2.56,1.18.47,2.47.27,3.59.89.53-.72.16-1.29-.09-1.85A44.43,44.43,0,0,0,359,175c-1.78-2.5-3.57-5-5.56-7.36-1.17-1.37-1.18-1.43-2.68-.57a56.5,56.5,0,0,0-9.32,7,50,50,0,0,0-4.76,4.79c-.86,1-.61,1.2.67,1.78a21.05,21.05,0,0,0,4.21,1.48c2,.42,3.87,1,5.82,1.38s4,.79,5.94,1.16a4.47,4.47,0,0,0,.82,0"/><path class="cls-1" d="M307,196.53c.31-.39,0-.76-.14-1a7.21,7.21,0,0,0-3.82-3.28,2.5,2.5,0,0,0-2.67.49,6.94,6.94,0,0,0-2.22,3.48,1.91,1.91,0,0,0,1.4,2.45,6.91,6.91,0,0,0,2.56.22,1.5,1.5,0,0,1,1.52.7c2.51,4.06,6.6,5.4,10.94,6.29,1,.22,2.09.4,3.15.58.26.05.66.13.79,0,.79-.8,1.69-.37,2.58-.35a50.42,50.42,0,0,0,12.23-1.48,2.9,2.9,0,0,0,1.75-1.18"/><path class="cls-1" d="M353.35,205.32c-1.32.17-1.85.81-2,2.62-.2,3.22-.4,6.44-.5,9.67-.09,2.75-.2,5.51-.23,8.27a1.42,1.42,0,0,0,1.07,1.63c3.9,1.24,7.66,3,11.88,3a1.18,1.18,0,0,1,.35.11"/><path class="cls-1" d="M342.4,182.67a44.49,44.49,0,0,1,1.63,4.89c.32,1,.14,1.29-.93,1.28-2.13,0-4.27,0-6.4-.14a5,5,0,0,0-3.5,1.3,101.71,101.71,0,0,1-8.73,6.3,14.15,14.15,0,0,1-7,2.24,23.36,23.36,0,0,1-7.69-1.2c-.62-.19-1.23-.4-1.86-.57a1.63,1.63,0,0,0-2.21.92,5.2,5.2,0,0,1-.35.47"/><path class="cls-1" d="M334.48,200.37a5.67,5.67,0,0,1-1.08-4.55.77.77,0,0,1,.84.71,8.59,8.59,0,0,1,.44,3.86,4.85,4.85,0,0,0,.66,3,12.79,12.79,0,0,1,1.34,5.16c.4,4.18-.19,8.31-.65,12.46-.34,3-.81,6-.85,9.08,0,1.53.33,2.78,2,3.26.27.07.38.21.35.47"/><path class="cls-1" d="M372,213.65c.86-.77,2-.72,3-1,.44-.09,1.08-.14,1.13-.69a1.48,1.48,0,0,0-.77-1.29,22.32,22.32,0,0,0-4.2-2.32,40.47,40.47,0,0,0-9.66-3.15,23.74,23.74,0,0,0-7.23-.45,2.6,2.6,0,0,0-.58.23"/><path class="cls-1" d="M341.36,234.38a14.07,14.07,0,0,0-5.25-.36c-1.23.19-1.69,1.11-2,2.11a157.48,157.48,0,0,0-3.7,17.59c-.26,1.7-.62,3.52.22,5.17-.52.46-1.54.31-1.42,1.34s1.06,1.07,1.75,1.25a6.64,6.64,0,0,0,2.55.27"/><path class="cls-1" d="M364.42,230.3A26.22,26.22,0,0,1,367.2,223a2.77,2.77,0,0,1,2.11-1.52c.92-.12,1.12,0,.92.94a51,51,0,0,1-1.74,5.24c-.07.24-.15.47-.23.7-.69,1.81-1.46,2.36-3.38,2.19-.68-.07-.85,0-1,.72a32.35,32.35,0,0,1-.89,3.27,14.68,14.68,0,0,0,.1,5.94,50.62,50.62,0,0,1,.82,10.13,44.28,44.28,0,0,1-1.51,8.85c-.32,1.16-1.46,1.49-2.66.68-1.89-1.27-4.06-1.52-6.19-1.8a11.84,11.84,0,0,0-4.43.17c-.84.22-1.41-.23-1.5-1.15a19.89,19.89,0,0,1,.05-6.53,12.3,12.3,0,0,0-.07-5.69c-.22-.87-.5-1.8-1.66-2.06a5,5,0,0,0,0,2.87c.28,1.71.55,3.41.82,5.12a1,1,0,0,0,.47.7"/><path class="cls-1" d="M361.85,236.82c-.84-1-2.08-.75-3.15-.89-3.87-.51-7.76-.88-11.64-1.32-1.51-.17-3-.41-4.54-.57-.44,0-1-.21-1.11.57"/><path class="cls-1" d="M362.44,236.71c-2.05.88-4.19.65-6.29.45-4.63-.44-9.16-1.47-13.74-2.21a3.24,3.24,0,0,1-.82-.34"/><path class="cls-1" d="M333.9,262l8.74.35"/><path class="cls-1" d="M354.87,182c-.63.36-.48,1-.47,1.52.07,3.56-.68,6.78-3.84,9"/><path class="cls-1" d="M354.4,184.77a24.12,24.12,0,0,0,7.93.41l-.71-1"/><path class="cls-1" d="M359.52,260.12a2.11,2.11,0,0,1-1.51.22,21.47,21.47,0,0,0-4.66-.28c-2.39.07-4.72-.54-7.1-.41a4.34,4.34,0,0,0-2.45.7"/><path class="cls-1" d="M317.48,198.74a21.49,21.49,0,0,0,1.86,7"/><path class="cls-1" d="M113.09,232.4a22.63,22.63,0,0,0-6.7-.77c-2.3,0-4.6,0-6.9,0-6.49.06-13,.19-19.42.87a47.51,47.51,0,0,0-7.91,1.33,20.67,20.67,0,0,0-9,5.67c-4,3.93-6.06,8.85-8,13.86C52,261.86,49.06,270.48,46,279a55.55,55.55,0,0,1-5.09,11.25,13.14,13.14,0,0,1-8.7,5.61,86.94,86.94,0,0,1-14.94,1.56c-5.7.25-11.41.36-17.12.36"/><path class="cls-1" d="M117.24,238.66a8.38,8.38,0,0,1,4.51,1.74,67.38,67.38,0,0,1,6.06,4.68,25.52,25.52,0,0,0,3.58,2.82,43,43,0,0,0,6.05,3,29.64,29.64,0,0,0,6.37,2.2,2.25,2.25,0,0,0,.26,0c2.71.43,2.8-.06,2.43-2.17-.82-4.62-2.09-9.12-3.18-13.67-.79-3.27-1.45-6.56-2.19-9.83-.38-1.69-.81-2-2.55-1.8-3.22.3-6.38.93-9.58,1.32a79.52,79.52,0,0,0-11.12,2,7.48,7.48,0,0,0-4.08,2.19,1.61,1.61,0,0,0-.16,2.31c1,1.16,1.66,2.5,2.6,3.67a2.87,2.87,0,0,1,.49,3.08c-.26.72-.52,1.44-.76,2.17-1.66,5.1,1,10.91,6.9,11.82a10.34,10.34,0,0,0,9.3-3.41,1.86,1.86,0,0,0,.53-1.64"/><path class="cls-1" d="M77.9,270.72a6.25,6.25,0,0,1,3.44,1.93,57,57,0,0,1,9.46,10.46,6.7,6.7,0,0,1,1,4.6,45.35,45.35,0,0,1-2.27,9.45,5.27,5.27,0,0,0-.26,1c-.1.76,0,1.24,1,1.31,2.72.18,5.45.23,8.18.24a2,2,0,0,0,1.92-1.42c1.69-3.93,2.34-8.14,3.31-12.26a40.89,40.89,0,0,1,1.41-5.24"/><path class="cls-1" d="M91.82,261.39c-1.75.15-3.38.86-5.11,1.17-3,.53-6,.57-8.69-1.15-.58-.37-1.36-.28-1.81-1a4.45,4.45,0,0,1-.79-1.8,10.11,10.11,0,0,0-1-2.81c-1.72-3.61-3.18-7.35-5.11-10.86a17.7,17.7,0,0,0-2.8-4.22c-.15-.15-.23-.37-.39-.51a1.69,1.69,0,0,0-1.76-.47c-.67.34-.29,1-.18,1.62a16.15,16.15,0,0,0,1.58,3.95,56.67,56.67,0,0,0,7.65,12.27c.56.65,1,1.46,1.91,1.66"/><path class="cls-1" d="M108.81,252.71c0-.09-.14-.2-.12-.25,1.06-2.1-.23-3.21-1.81-4.07a31.81,31.81,0,0,0-3.82-1.68c-2.62-1-4.22.4-5.37,2a43.24,43.24,0,0,0-3.83,7.67,33.49,33.49,0,0,0-1.8,4.88c-.94,3.64-2.17,7.27-2.27,11.09a7.17,7.17,0,0,0,.28,2.54A3.17,3.17,0,0,0,92.46,277a47.16,47.16,0,0,0,7.67.87c3.06.15,6.13.25,9.19.24a12.53,12.53,0,0,0,4.47-.48"/><path class="cls-1" d="M76.88,261.27c-.07,1.45.78,2.63,1.2,3.94a6,6,0,0,1-.26,5.15,2.12,2.12,0,0,1-.95,1c-2.62,1.1-4.23,3.37-6.1,5.29-3.63,3.74-7.13,7.61-10.62,11.48-2.44,2.72-4.79,5.51-7.14,8.31-.36.43-.83.95-.53,1.65"/><path class="cls-1" d="M76.49,271.74c.28.49-.12.72-.38,1-6.23,7.45-12.64,14.75-19.42,21.72-.88.9-1.79,1.79-2.68,2.68a2.59,2.59,0,0,1-1.4.9c-.62.11-.86.61-1,1.15"/><path class="cls-1" d="M108.17,253a3.38,3.38,0,0,0,1.68-.62,3.2,3.2,0,0,1,1.14-.64c1.41-.5,2,0,2,1.52a13.9,13.9,0,0,1-1.17,5,7,7,0,0,0,1.53,7.7c2,2.18,4.28,4.07,6.27,6.24.47.51,1.19.9,1,1.79-1.84.61-3.33-.54-4.65-1.39-.81-.52-1.7-1.18-2.53-1.62-3-1.57-5.87-3.39-8.9-4.93a38.19,38.19,0,0,1-7-4.33,4.35,4.35,0,0,0-4-.88,1.38,1.38,0,0,1-1,0"/><path class="cls-1" d="M119.54,274.3c.48.91,1.5,1.21,2.21,1.87a9.51,9.51,0,0,1,2.13,2.73,2.06,2.06,0,0,1-1.66,3.16,10.16,10.16,0,0,1-4.85-.49,6.83,6.83,0,0,1-3.58-3.95"/><path class="cls-1" d="M101,267.65a22.09,22.09,0,0,0,9.45,4.22c1.45.31,2.9.57,4.34.91a1.41,1.41,0,0,0,1,0"/><path class="cls-1" d="M111.75,251.81c0,1.43-1,2.51-1.57,3.69a32.27,32.27,0,0,1-6.22,9,4.2,4.2,0,0,0-.51.76"/><path class="cls-1" d="M118.78,239.17c1.09,1.79,2.89,2.83,4.49,4.06,1.26,1,2.73,1.69,4,2.6.41.29.78.17,1.16.23"/><path class="cls-1" d="M113.92,277.62c.86-.42,1.13-1.29,1.54-2.05.18-.34.27-.63-.13-.9a.74.74,0,0,0-1,.15,2.46,2.46,0,0,0-.64,2.67"/><path class="cls-1" d="M115.2,245a6,6,0,0,0-1.27,2.43c-.58,1.31-1.12,2.64-1.67,4"/><path class="cls-1" d="M102.94,265.48,101,267.4c-.29.29-.57.51-1,.29-.07,0-.72-.08-.62.47"/><path class="cls-1" d="M241,219a3.75,3.75,0,0,1,1.25-.87c1-.62,1.85-1.32,2.78-2,.24-.17.41-.46.78-.36.05,0,.15-.09.2-.15.87-1,1.85-1.94,2.79-2.89a.79.79,0,0,0,.33-.62c0-.16.17-.34.3-.46a19.77,19.77,0,0,1,2.21-2.08c.38-.27.71-.59,1.25-.47a.81.81,0,0,0,.46-.15,1.67,1.67,0,0,1,1.09-.18,46.32,46.32,0,0,1,8.67,2.36,66,66,0,0,1,11,5A44,44,0,0,1,284.23,224a31.9,31.9,0,0,1,6,9.24,22.83,22.83,0,0,1,1.55,5,6.83,6.83,0,0,1-.78,4.34c-.86,1.75-1.89,3.41-2.84,5.12s-2,3.64-3,5.48-2,3.76-2.89,5.68a51.12,51.12,0,0,0-3.44,8.47,16.51,16.51,0,0,0-.44,6.67c.36,2.66.92,5.28,1.48,7.9q.65,3.06,1.34,6.1c.14.62.29,1.24.43,1.86a2,2,0,0,0,1.71,1.64,14.13,14.13,0,0,0,3,.27c9.21,0,2-.31,9.36-.59,2.76-.11,5.52-.21,8.27-.49,3.3-.33,6.61-.6,9.9-1.12,4.51-.71,8.95-1.59,13-3.74a11.31,11.31,0,0,0,6-7.11,20.06,20.06,0,0,0,.58-5.24c.06-3.41,0-6.83,0-10.24a24.16,24.16,0,0,1,.06-2.69c.1-.94.54-1.12,1.32-1,2.29.23,4.58.43,6.87.72.55.07,1.41.11,1.57.58.27.83.81.64,1.34.68"/><path class="cls-1" d="M196.09,205a1.39,1.39,0,0,0-1.35.48,10.31,10.31,0,0,0-1.48,2.29c-1.53,3-2.83,6.1-4.12,9.2a47.49,47.49,0,0,0-2,5.57c-.11.37-.17.76-.26,1.14a3.2,3.2,0,0,0,.63,2.47,11.36,11.36,0,0,0,1.53,2.08,2.85,2.85,0,0,0,.78.61,1,1,0,0,0,1.4-.31,10.81,10.81,0,0,0,1.65-3.2c1-2.7,1.87-5.45,2.7-8.21s1.67-5.65,2.3-8.53c.13-.58.17-1.17.27-1.76s.45-.77.92-.45a10.45,10.45,0,0,1,1.81,1.64c1.13,1.2,2.26,2.4,3.36,3.62,1.24,1.37,2.47,2.74,3.67,4.13q3.58,4.16,7.13,8.32c1,1.24,2,2.51,3.05,3.77"/><path class="cls-1" d="M226.37,221.8c.07,0,.18-.09.15-.18-.3-.8.14-1.51.34-2.21.45-1.64.87-3.28,1.31-4.92.62-2.29,1.21-4.58,1.82-6.87.64-2.46,1.35-4.91,2.13-7.33a6.91,6.91,0,0,1,1.28-2.59A2.09,2.09,0,0,1,235,197a18.18,18.18,0,0,1,4.08.59c2.52.47,5,1,7.54,1.55,1.82.41,3.66.78,5.48,1.2,1,.24,2,.42,3,.65l.21.05c.23.08.52.16.55.41s-.25.4-.43.59c-1.16,1.16-2.7,1.63-4.1,2.36q-4.46,2.33-8.68,5.06-2.43,1.59-4.85,3.21c-.26.18-.57.36-.58.77,0,.24-.25.36-.41.51a1.05,1.05,0,0,0-.06,1.67c.81.83,1.77,1.47,2.65,2.21.51.43,1.17.7,1.46,1.39.09.23.44.21.66.25a2.32,2.32,0,0,0,1.2,0c.89-.28,2.21.25,2.1,1.19"/><path class="cls-1" d="M253.13,228.75c-.26.12-.34.38-.44.62a25.54,25.54,0,0,1-2.08,4.19,5.42,5.42,0,0,1-4.09,2.48,29.41,29.41,0,0,1-6.15.1c-1.26-.1-2.52-.14-3.77-.33-2.12-.31-4.25-.61-6.36-1.06-1.11-.23-2.23-.39-3.35-.57a.49.49,0,0,0-.52.2.37.37,0,0,0,0,.46c.69.94,1.35,1.89,2.07,2.79q3.39,4.26,6.61,8.63c.77,1,1.47,2.12,2.16,3.22a6.83,6.83,0,0,1,.43,1.12.57.57,0,0,1-.17.72c-.25.19-.51,0-.65-.16a10.4,10.4,0,0,1-1.51-1.53,3,3,0,0,0-.78-.78"/><path class="cls-1" d="M196.15,205.14a.71.71,0,0,1,0-.15c1-.14,1.44-1.06,2.11-1.66.23-.2.41-.45.63-.67a1,1,0,0,1,1.54-.1A23.22,23.22,0,0,1,203,205c1.2,1.3,2.36,2.64,3.52,4,1.42,1.65,2.82,3.34,4.24,5s2.62,3,3.92,4.55c1.94,2.26,3.87,4.53,5.88,6.72.45.49.84,1,1.3,1.5a.74.74,0,0,1,.26.56"/><path class="cls-1" d="M242.28,219.71c.26.51.81.6,1.25.81a1.87,1.87,0,0,0,.92.23c.56,0,.57,0,.57.56a7,7,0,0,1-.72,2.84,8.36,8.36,0,0,1-7.49,5.58,22,22,0,0,1-6.57-.6c-1.78-.38-3.54-.83-5.32-1.23-.58-.13-1.17-.24-1.75-.33a1.37,1.37,0,0,0-.47.1"/><path class="cls-1" d="M260.83,243.68a.62.62,0,0,1-.42.12,6.09,6.09,0,0,0-4,1.12c-3.18,1.92-6.1,4.21-9.15,6.3a4.34,4.34,0,0,1-1.8.95c-.17,0-.38.05-.46,0-.49-.45-1.19-.73-1.26-1.53a.76.76,0,0,0-.2-.47,7,7,0,0,1-1.81-3.72"/><path class="cls-1" d="M263,244.1c-.14-.61-.66-.94-1.05-1.34-1.43-1.47-2.86-2.95-4.37-4.35a1.42,1.42,0,0,0-.83-.47c-.38,0-.4-.54-.73-.67,0,0,0-.07-.05-.1-1.38-1.42-1.72-3.31-2.21-5.12-.24-.88-.14-1.84-.35-2.72-.3-1.31.31-2.46.45-3.68,0-.11.07-.2,0-.31a1.32,1.32,0,0,1-.1-1,52,52,0,0,1,1.14-6.2c.1-.35.13-.78.6-.89a1,1,0,0,1,.33.89,17,17,0,0,1-.84,4.9c-.15.62-.4,1.21-.58,1.82a1,1,0,0,1-.44.61"/><path class="cls-1" d="M218.26,228c.86,1.1,1.73,2.19,2.58,3.31.64.84,1.29,1.68,1.95,2.5s1.48,1.88,2.23,2.82c1.45,1.81,2.86,3.65,4.3,5.47q2.49,3.18,5,6.35c0,.06.13.07.2.11"/><path class="cls-1" d="M235.77,247.45l-.56.47a3.52,3.52,0,0,0-1.19,3.15,2.63,2.63,0,0,0,1.71,2.3,6.23,6.23,0,0,0,2.78.38,13.08,13.08,0,0,0,2.79-.36,2.89,2.89,0,0,0,2.31-1.91,1.19,1.19,0,0,1,.22-.31"/><path class="cls-1" d="M236.08,247.4a7.9,7.9,0,0,1,3.1-.61,8.09,8.09,0,0,0,2.52-.46,12.76,12.76,0,0,0,3.48-2.28c2-1.71,3.73-3.65,5.53-5.52a17.47,17.47,0,0,1,2-1.94,2.09,2.09,0,0,1,1.87-.43,1.84,1.84,0,0,0,.41,0"/><path class="cls-1" d="M226.58,221.52a2.88,2.88,0,0,0,1-.94,26.42,26.42,0,0,1,3-2.88,65.4,65.4,0,0,1,5.73-4.35.9.9,0,0,1,.83-.2"/><path class="cls-1" d="M240.73,219.35a17.05,17.05,0,0,1-3.41,1.13c-2.13.56-4.29,1-6.45,1.46a1.34,1.34,0,0,1-.79,0,2.07,2.07,0,0,0-1,0,14.68,14.68,0,0,1-1.86.2.55.55,0,0,1-.57-.26"/><path class="cls-1" d="M254.53,202.92c.55.23,1.07,0,1.6-.1a5.1,5.1,0,0,1,1.65-.13c.65.11.88.54.56,1.1a10.24,10.24,0,0,1-1.65,2.12c-.75.77-1.51,1.52-2.27,2.28-.14.14-.34.26-.31.52"/><path class="cls-1" d="M223.19,234.07c1.11-.47,1.47-1.34,1.14-2.74a11,11,0,0,0-1.32-3,2.49,2.49,0,0,1-.27-.51.69.69,0,0,0-.71-.46c-.64.12-1.27,0-1.91.07a15.11,15.11,0,0,0-1.77.4,2.8,2.8,0,0,0-1.37.87,1.7,1.7,0,0,0,.1,2.51,8.61,8.61,0,0,0,3.25,2.33,4.5,4.5,0,0,0,1.91.52.8.8,0,0,0,.56-.15"/><path class="cls-1" d="M256.64,238c-.16.55.27.88.53,1.23,1,1.35,2.15,2.59,3.29,3.84.42.46.93.82,1.36,1.23s.9.88,1.34,1.34a13.37,13.37,0,0,0,1.6,1.4.74.74,0,0,0,.72.21"/><path class="cls-1" d="M245.9,215.89c.12.22,0,.39-.11.56a3,3,0,0,0-.06,3.06c.35.57.09,1-.76,1.34"/><path class="cls-1" d="M263.72,244.51a1.4,1.4,0,0,1,1-.09,15.43,15.43,0,0,0,3.26-.14c.2,0,.43.1.56,0s.52-.27.54-.66a2.86,2.86,0,0,1,.56-1.18,15.61,15.61,0,0,1,1.33-2.08,1.7,1.7,0,0,1,.88-.68c.5.3.35.72.27,1.15a4.11,4.11,0,0,1-2.59,3,1.22,1.22,0,0,1-.47,0"/><path class="cls-1" d="M230.24,222.24c-.35.43-.89.33-1.34.45a12.89,12.89,0,0,1-1.76.27,1.77,1.77,0,0,1-.56-.05c-.55-.12-.63-.54-.21-1"/><path class="cls-1" d="M253,209.22a.56.56,0,0,1-.21.52c-1,.82-1.9,1.64-2.84,2.48a.87.87,0,0,1-.72.26"/><path class="cls-1" d="M242.39,246.16a6.83,6.83,0,0,1,1.28,3.21.69.69,0,0,1-.2.67"/><path class="cls-1" d="M262,244.3c.53-.14,1.06-.32,1.54.11.29.25.44.61.72.89s.49.54.73.81a2.56,2.56,0,0,1,.67,1.24"/><path class="cls-1" d="M169.35,65.86a9.16,9.16,0,0,1,11.18-7.15c4.53,1,5.4,1.33,8.49,3.57,12.28-8.48,11.21-23.67-2.23-31.74,1.81-6.13-3.09-10.56-9.19-9.8-.78-4.14.93-8.5-1-12.57-1.11-2.27-1.89-4.69-4.07-6.23-5-3.52-10-2-13.34,4.5a6.73,6.73,0,0,1-5.4,4.16c-6,1.19-9.74,9.06-8.5,16.36a45.21,45.21,0,0,0,1.48,5c-7-.08-11.48,3.61-12.53,10.2-.84,5.27-1.08,10.87,3,15.59-5.34,2.73-5.5,7.36-5.33,12.1-9.51,3-12.67,7.29-12.51,17.44.07,4,1.06,8-.35,12.11-.47,1.35-1,3.49.76,4.87"/><path class="cls-1" d="M185,151.69c-2,6-4.89,11.21-11.14,13.95a4.81,4.81,0,0,0-2.81,5.28c.37,3.54.09,114.43.09,118V300.1h28s9.15-.27,23.22-.16c1.69,0,3.38.07,5.06.05,5-.05,10,.13,14.93.11a22.31,22.31,0,0,0,3.83-.21,2.51,2.51,0,0,0,2.08-1.44c.49-1.06.83-2.18,1.27-3.26,1.16-2.84,2.29-5.69,3.45-8.53s2.31-6,3.42-9c1.05-2.84,2.07-5.68,3.08-8.53.91-2.61,1.78-5.24,2.69-7.85.81-2.35,1.66-4.68,2.48-7,1.11-3.18,2.37-6.31,3.75-9.4.08-.17.21-.31.1-.52"/><path class="cls-1" d="M159.07,151.69c2.67,9.58,2,126.63,1.27,136.34-.28,3.91-1.33,7.77-2.11,12.07H120.69c-5.28,0-10.56-.08-15.84-.12a8.43,8.43,0,0,1-2.17-.37c-.91-.24-1.15-.77-1.05-1.67.08-.67.38-1.36,0-2.05"/><path class="cls-1" d="M193.94,59.6c2.3,7.31,2,10.33-2.24,21.46,12.36,6.17,14.2,15.55,12.47,29,7.05,4.34,10.55,10.77,9.9,19.32-.46,6-5.32,12.3-11.2,13.37a8.11,8.11,0,0,1-6.47-1.45c-2.29,1.54-2.06,4.12-3.27,6-2.8,4.37-4,5.06-8.58,3.53"/><path class="cls-1" d="M185.44,135.6c-1.57,4.09-5,5.49-8.94,5.77-2.68.19-5.38,0-8.62,0,1.93,6.5,2.17,12.75,3.17,19,5.5-2.13,7.56-6.47,9.57-11.16l3.48,1.12"/><path class="cls-1" d="M167.12,114.14c1-2.81,1.28-5.77,2.62-8.53,2.15-4.44,5.2-7,10.33-6.16a17.62,17.62,0,0,0-8.93-18.84c-5.93-3.21-13-.61-17,6.26-1,1.79-2,3.62-3.11,5.56-5.75-2.27-11.74-2.86-16.93.39-6.1,3.82-7.63,10.48-7.46,17.32-3.34,0-4.81-2-6.48-3.6"/><path class="cls-1" d="M155.94,124c.38-8.39-10.25-14.62-18.32-10.71-.77.38-1.05,1.62-2.51,1.25-1.31-2.24-1.08-5.15-2.76-7.6-3.55-5.17-9.13-5.47-12.68-.42-1.12,1.59-2.37,3.27-2.5,5-.27,3.82-1.09,6.51-4.93,8.68s-4.77,9.28-2.79,13.21c2.18,4.33,5.3,5.58,11.54,4.4,1.48,5.81,1.27,13.1,8.62,15.11a11.88,11.88,0,0,0,12-3.42c.44-.14.33.15.48.43,4.5,8.23,8.35,8.55,15.61,1.36"/><path class="cls-1" d="M193,56.47c-5.36-6.51-10.86-7.56-18.77-3.57-4.2-9.52-5.19-10.56-9.84-10.29s-7.74,3.45-9.48,10.22c7.61-.54,11.45,4,14,10.35"/><path class="cls-1" d="M167.12,115.93c-1.73-2.94-4.18-1.26-5.73-.31-2,1.22-3.36,3.44-5,5.22"/><path class="cls-1" d="M185,139.17a22.5,22.5,0,0,1-.45,11.63"/></g></g></svg>