<?xml version="1.0" encoding="utf-8"?>
<!-- Generator: Adobe Illustrator 25.1.0, SVG Export Plug-In . SVG Version: 6.00 Build 0)  -->
<svg version="1.1" id="Layer_1" xmlns="http://www.w3.org/2000/svg" xmlns:xlink="http://www.w3.org/1999/xlink" x="0px" y="0px"
	 viewBox="0 0 192.8 165" style="enable-background:new 0 0 192.8 165;" xml:space="preserve">
<style type="text/css">
	.st0{opacity:0.1;fill:#1C7F00;}
	.st1{opacity:0.4;fill:#1C7F00;}
	.st2{opacity:0.7;fill:#1C7F00;}
	.st3{fill:#1C7F00;}
</style>
<path class="st0" d="M132.4,75.4l15.7,2.7l0.7-3.9l-15.7-2.7c-4.7-0.8-9.1,2.3-9.9,7l-0.3,1.7l-11.1-1.9c0.1,1.3-0.2,2.7-0.7,3.9
	l11.1,1.9l-0.3,1.7c-0.4,2.2,0.1,4.5,1.4,6.4c1.3,1.9,3.3,3.1,5.5,3.5l15.7,2.7l0.7-3.9l-15.7-2.7c-1.2-0.2-2.2-0.9-2.9-1.9
	c-0.7-1-1-2.2-0.8-3.4l0.3-1.7l20.1,3.5l0.7-3.9l-20.1-3.5l0.3-1.7C127.5,76.7,129.9,75,132.4,75.4z"/>
<path class="st0" d="M80.9,23.9c-2.5,1.4-5.4,1.8-8.1,1c-2.7-0.8-5.1-2.5-6.5-5c-0.6-0.9-1-1.9-1.2-2.9l-4.2-1.1
	c0.2,2.1,0.8,4.2,1.9,6.1c2,3.4,5.1,5.8,8.9,6.9c1.3,0.3,2.6,0.5,3.9,0.5c2.6,0,5.1-0.7,7.3-1.9c1.9-1,3.5-2.5,4.7-4.3l-4.2-1.3
	C82.7,22.7,81.8,23.3,80.9,23.9z"/>
<path class="st0" d="M64.9,13.8l20.3,5.5l3.9,1.1l8.3,2.3l1-3.9l-8.3-2.3c0.4-3.2-0.2-6.4-1.8-9.2c-1.9-3.4-5.1-5.8-8.9-6.8
	C72.3-1.4,64.9,2.2,62,8.9l-8.3-2.3l-1,3.9l8.3,2.3L64.9,13.8z M75.5,4c0.9,0,1.9,0.1,2.8,0.4c2.7,0.7,5.1,2.5,6.5,5
	c1,1.9,1.5,4,1.4,6.1L65.9,10C67.7,6.3,71.4,4,75.5,4z"/>
<path class="st0" d="M88.3,112.3L78.1,84.2c-0.5-1.5-0.7-3.2-0.3-4.8l-4-0.7c-0.5,2.3-0.3,4.6,0.5,6.8l10.2,28.1
	c0.3,0.9,0.5,1.9,0.5,2.9V140c0,3.3-2.6,5.9-5.9,5.9l0,0c-3.3,0-5.9-2.6-5.9-5.9v-20.7c0-1.5-0.3-2.9-0.8-4.3l-9.9-27.3
	c-0.8-2.2-3.3-3.2-5.4-2.4c-1.6,0.6-2.7,2.2-2.7,3.9v22.3c0,0.9-0.1,1.8-0.4,2.6l-8.8,27.7c-1,3.1-4.4,4.8-7.5,3.9
	c-1.5-0.5-2.7-1.5-3.5-2.9c-0.7-1.4-0.9-3-0.4-4.5l8.1-25.4c0.4-1.2,0.6-2.5,0.6-3.8V83.8c0-3.2,0.4-6.5,1.3-9.6l0.2-0.6l-4-0.7
	l-0.1,0.2c-0.9,3.5-1.4,7.1-1.4,10.7v25.3c0,0.9-0.1,1.8-0.4,2.6l-8,25.3c-0.8,2.5-0.6,5.2,0.6,7.6c1.2,2.4,3.3,4.1,5.8,4.9
	c1,0.3,2,0.5,3,0.5c4.3,0,8.1-2.8,9.5-6.9l8.8-27.7c0.4-1.2,0.6-2.5,0.6-3.8V89.3c0-0.2,0.3-0.2,0.3-0.1l9.9,27.3
	c0.3,0.9,0.5,1.9,0.5,2.9v20.7c0,5.5,4.4,9.9,9.9,9.9l0,0c5.5,0,9.9-4.4,9.9-9.9v-23.5C89,115.1,88.8,113.7,88.3,112.3z"/>
<path class="st0" d="M106.2,73.5l-13-8.9c-0.8-0.5-1.3-1.4-1.4-2.3l-2-16.9c-0.6-5.1-4.2-9.3-9.2-10.7l-22.2-6
	c-2.9-0.8-6.1-0.5-8.8,0.8L27.8,40c-1.9,0.9-3.3,2.6-3.8,4.6l-4.8,17.5L0.7,58.9L0,62.8L18.7,66c0.1,0.8,0.4,1.5,0.8,2.2
	c1.7,3,5.5,4,8.5,2.3c1.1-0.7,2-1.7,2.6-2.9l0.1-0.2c0.1-0.2,0.1-0.4,0.2-0.6l0,0L35,51.6c0.2-0.9,0.9-1.7,1.7-2.1l11.1-5.4
	l-5.2,19.1l4,0.7l6.3-23l0,0l0.3-1l0.9-3.3l0,0l1.2-4.4c0.7,0,1.4,0.1,2,0.3l2.5,0.7l-3.5,13l20.1,5.4l3.5-13
	c1.6,0.5,3.1,1.5,4.1,2.9l-4.6,16.9l-2.9,10.7l1.5,0.3l2.5,0.4C81,71,81.9,72,83,72.7l1.2,0.8l-11.4-2.1l0,0L39,65.5l-1.3-0.2
	l-3.1-0.5l-0.8,2.8c-0.1,0.4-0.2,0.7-0.4,1l3.2,0.5l1.3,0.2L73,75.4L92.1,79l7,4.8c2.9,1.9,6.7,1.2,8.7-1.6c0.9-1.4,1.3-3.1,1-4.7
	C108.5,75.9,107.6,74.4,106.2,73.5z M49.3,39L35,46c-1.9,0.9-3.3,2.6-3.8,4.6l-4.1,15.2c-0.3,1.2-1.5,1.9-2.7,1.6
	c-0.6-0.2-1.1-0.5-1.4-1c-0.3-0.5-0.4-1.1-0.2-1.7L28,45.8c0.2-0.9,0.9-1.7,1.7-2.1l21.2-10.4L49.3,39z M73.5,46.7L61,43.3l2.5-9.1
	L76,37.6L73.5,46.7z M104.5,79.9c-0.7,1-2.1,1.3-3.1,0.6L85.2,69.4c-0.8-0.6-1.3-1.4-1.4-2.4L83,60.3l3.1-11.5l1.6,13.8
	c0.2,2.1,1.4,4,3.1,5.2l13,8.9c0.5,0.3,0.8,0.8,0.9,1.4C104.9,78.7,104.8,79.4,104.5,79.9z"/>
<path class="st1" d="M146.4,80.4l15.7,2.7l0.7-3.9l-15.7-2.7c-4.7-0.8-9.1,2.3-9.9,7l-0.3,1.7l-11.1-1.9c0.1,1.3-0.2,2.7-0.7,3.9
	l11.1,1.9l-0.3,1.7c-0.4,2.2,0.1,4.5,1.4,6.4c1.3,1.9,3.3,3.1,5.5,3.5l15.7,2.7l0.7-3.9l-15.7-2.7c-1.2-0.2-2.2-0.9-2.9-1.9
	c-0.7-1-1-2.2-0.8-3.4l0.3-1.7l20.1,3.5l0.7-3.9l-20.1-3.5l0.3-1.7C141.5,81.7,143.9,80,146.4,80.4z"/>
<path class="st1" d="M94.9,28.9c-2.5,1.4-5.4,1.8-8.1,1c-2.7-0.8-5.1-2.5-6.5-5c-0.6-0.9-1-1.9-1.2-2.9l-4.2-1.1
	c0.5,6.2,4.8,11.4,10.8,13c1.3,0.3,2.6,0.5,3.9,0.5c2.6,0,5.1-0.7,7.3-1.9c1.9-1,3.5-2.5,4.7-4.3l-4.2-1.3
	C96.7,27.7,95.8,28.3,94.9,28.9z"/>
<path class="st1" d="M78.9,18.8l20.3,5.5l3.9,1.1l8.3,2.3l1-3.9l-8.3-2.3c0.4-3.2-0.2-6.4-1.8-9.2c-1.9-3.4-5.1-5.8-8.9-6.8
	C86.3,3.6,78.9,7.2,76,13.9l-8.3-2.3l-1,3.9l8.3,2.3L78.9,18.8z M89.5,9c0.9,0,1.9,0.1,2.8,0.4c2.7,0.7,5.1,2.5,6.5,5
	c1,1.9,1.5,4,1.4,6.1L79.9,15C81.7,11.3,85.4,9,89.5,9z"/>
<path class="st1" d="M102.3,117.3L92.1,89.2c-0.5-1.5-0.7-3.2-0.3-4.8l-4-0.7c-0.5,2.3-0.3,4.6,0.5,6.8l10.2,28.1
	c0.3,0.9,0.5,1.9,0.5,2.9V145c0,3.3-2.6,5.9-5.9,5.9l0,0c-3.3,0-5.9-2.6-5.9-5.9v-20.7c0-1.5-0.3-2.9-0.8-4.3l-9.9-27.3
	c-0.8-2.2-3.3-3.2-5.4-2.4c-1.6,0.6-2.7,2.2-2.7,3.9v22.3c0,0.9-0.1,1.8-0.4,2.6l-8.8,27.7c-1,3.1-4.4,4.8-7.5,3.9
	c-1.5-0.5-2.7-1.5-3.5-2.9c-0.7-1.4-0.9-3-0.4-4.5l8.1-25.4c0.4-1.2,0.6-2.5,0.6-3.8V88.8c0-3.2,0.4-6.5,1.3-9.6l0.2-0.6l-4-0.7
	l-0.1,0.2c-0.9,3.5-1.4,7.1-1.4,10.7v25.3c0,0.9-0.1,1.8-0.4,2.6l-8,25.3c-0.8,2.5-0.6,5.2,0.6,7.6c1.2,2.4,3.3,4.1,5.8,4.9
	c1,0.3,2,0.5,3,0.5c4.3,0,8.1-2.8,9.5-6.9l8.8-27.7c0.4-1.2,0.6-2.5,0.6-3.8V94.3c0-0.2,0.3-0.2,0.3-0.1l9.9,27.3
	c0.3,0.9,0.5,1.9,0.5,2.9v20.7c0,5.5,4.4,9.9,9.9,9.9l0,0c5.5,0,9.9-4.4,9.9-9.9v-23.5C103,120.1,102.8,118.7,102.3,117.3z"/>
<path class="st1" d="M120.2,78.5l-13-8.9c-0.8-0.5-1.3-1.4-1.4-2.3l-2-16.9c-0.6-5.1-4.2-9.3-9.2-10.7l-22.2-6
	c-2.9-0.8-6.1-0.5-8.8,0.8L41.8,45c-1.9,0.9-3.3,2.6-3.8,4.6l-4.8,17.5l-18.5-3.2L14,67.8L32.7,71c0.1,0.8,0.4,1.5,0.8,2.2
	c1.7,3,5.5,4,8.5,2.3c1.1-0.7,2-1.7,2.6-2.9l0.1-0.2c0.1-0.2,0.1-0.4,0.2-0.6l0,0L49,56.6c0.2-0.9,0.9-1.7,1.7-2.1l11.1-5.4
	l-5.2,19.1l4,0.7l6.3-23l0,0l0.3-1l0.9-3.3l0,0l1.2-4.4c0.7,0,1.4,0.1,2,0.3l2.5,0.7l-3.5,13l20.1,5.4l3.5-13
	c1.6,0.5,3.1,1.5,4.1,2.9l-4.6,16.9l-2.9,10.7l1.5,0.3l2.5,0.4C95,76,95.9,77,97,77.7l1.2,0.8l-11.4-2.1l0,0L53,70.5l-1.3-0.2
	l-3.1-0.5l-0.8,2.8c-0.1,0.4-0.2,0.7-0.4,1l3.2,0.5l1.3,0.2L87,80.4l19.1,3.6l7,4.8c2.9,1.9,6.7,1.2,8.7-1.6c0.9-1.4,1.3-3.1,1-4.7
	C122.5,80.9,121.6,79.4,120.2,78.5z M63.3,44L49,51c-1.9,0.9-3.3,2.6-3.8,4.6l-4.1,15.2c-0.3,1.2-1.5,1.9-2.7,1.6
	c-0.6-0.2-1.1-0.5-1.4-1c-0.3-0.5-0.4-1.1-0.2-1.7L42,50.8c0.2-0.9,0.9-1.7,1.7-2.1l21.2-10.4L63.3,44z M87.5,51.7L75,48.3l2.5-9.1
	L90,42.6L87.5,51.7z M118.5,84.9c-0.7,1-2.1,1.3-3.1,0.6L99.2,74.4c-0.8-0.6-1.3-1.4-1.4-2.4L97,65.3l3.1-11.5l1.6,13.8
	c0.2,2.1,1.4,4,3.1,5.2l13,8.9c0.5,0.3,0.8,0.8,0.9,1.4C118.9,83.7,118.8,84.4,118.5,84.9z"/>
<path class="st2" d="M161.4,85.4l15.7,2.7l0.7-3.9l-15.7-2.7c-4.7-0.8-9.1,2.3-9.9,7l-0.3,1.7l-11.1-1.9c0.1,1.3-0.2,2.7-0.7,3.9
	l11.1,1.9l-0.3,1.7c-0.4,2.2,0.1,4.5,1.4,6.4c1.3,1.9,3.3,3.1,5.5,3.5l15.7,2.7l0.7-3.9l-15.7-2.7c-1.2-0.2-2.2-0.9-2.9-1.9
	c-0.7-1-1-2.2-0.8-3.4l0.3-1.7l20.1,3.5l0.7-3.9l-20.1-3.5l0.3-1.7C156.5,86.7,158.9,85,161.4,85.4z"/>
<path class="st2" d="M109.9,33.9c-2.5,1.4-5.4,1.8-8.1,1c-2.7-0.8-5.1-2.5-6.5-5c-0.6-0.9-1-1.9-1.2-2.9l-4.2-1.1
	c0.5,6.2,4.8,11.4,10.8,13c1.3,0.3,2.6,0.5,3.9,0.5c2.6,0,5.1-0.7,7.3-1.9c1.9-1,3.5-2.5,4.7-4.3l-4.2-1.3
	C111.7,32.7,110.8,33.3,109.9,33.9z"/>
<path class="st2" d="M93.9,23.8l20.3,5.5l3.9,1.1l8.3,2.3l1-3.9l-8.3-2.3c0.4-3.2-0.2-6.4-1.8-9.2c-1.9-3.4-5.1-5.8-8.9-6.8
	c-7.1-1.9-14.5,1.7-17.4,8.4l-8.3-2.3l-1,3.9l8.3,2.3L93.9,23.8z M104.5,14c0.9,0,1.9,0.1,2.8,0.4c2.7,0.7,5.1,2.5,6.5,5
	c1,1.9,1.5,4,1.4,6.1L94.9,20C96.7,16.3,100.4,14,104.5,14z"/>
<path class="st2" d="M117.3,122.3l-10.2-28.1c-0.5-1.5-0.7-3.2-0.3-4.8l-4-0.7c-0.5,2.3-0.3,4.6,0.5,6.8l10.2,28.1
	c0.3,0.9,0.5,1.9,0.5,2.9V150c0,3.3-2.6,5.9-5.9,5.9l0,0c-3.3,0-5.9-2.6-5.9-5.9v-20.7c0-1.5-0.3-2.9-0.8-4.3l-9.9-27.3
	c-0.8-2.2-3.3-3.2-5.4-2.4c-1.6,0.6-2.7,2.2-2.7,3.9v22.3c0,0.9-0.1,1.8-0.4,2.6l-8.8,27.7c-1,3.1-4.4,4.8-7.5,3.9
	c-1.5-0.5-2.7-1.5-3.5-2.9c-0.7-1.4-0.9-3-0.4-4.5l8.1-25.4c0.4-1.2,0.6-2.5,0.6-3.8V93.8c0-3.2,0.4-6.5,1.3-9.6l0.2-0.6l-4-0.7
	l-0.1,0.2c-0.9,3.5-1.4,7.1-1.4,10.7v25.3c0,0.9-0.1,1.8-0.4,2.6l-8,25.3c-0.8,2.5-0.6,5.2,0.6,7.6c1.2,2.4,3.3,4.1,5.8,4.9
	c1,0.3,2,0.5,3,0.5c4.3,0,8.1-2.8,9.5-6.9l8.8-27.7c0.4-1.2,0.6-2.5,0.6-3.8V99.3c0-0.2,0.3-0.2,0.3-0.1l9.9,27.3
	c0.3,0.9,0.5,1.9,0.5,2.9v20.7c0,5.5,4.4,9.9,9.9,9.9l0,0c5.5,0,9.9-4.4,9.9-9.9v-23.5C118,125.1,117.8,123.7,117.3,122.3z"/>
<path class="st2" d="M135.2,83.5l-13-8.9c-0.8-0.5-1.3-1.4-1.4-2.3l-2-16.9c-0.6-5.1-4.2-9.3-9.2-10.7l-22.2-6
	c-2.9-0.8-6.1-0.5-8.8,0.8L56.8,50c-1.9,0.9-3.3,2.6-3.8,4.6l-4.8,17.5l-18.5-3.2L29,72.8L47.7,76c0.1,0.8,0.4,1.5,0.8,2.2
	c1.7,3,5.5,4,8.5,2.3c1.1-0.7,2-1.7,2.6-2.9l0.1-0.2c0.1-0.2,0.1-0.4,0.2-0.6l0,0L64,61.6c0.2-0.9,0.9-1.7,1.7-2.1l11.1-5.4
	l-5.2,19.1l4,0.7l6.3-23l0,0l0.3-1l0.9-3.3l0,0l1.2-4.4c0.7,0,1.4,0.1,2,0.3l2.5,0.7l-3.5,13l20.1,5.4l3.5-13
	c1.6,0.5,3.1,1.5,4.1,2.9l-4.6,16.9l-2.9,10.7l1.5,0.3l2.5,0.4c0.5,1.2,1.4,2.2,2.5,2.9l1.2,0.8l-11.4-2.1l0,0L68,75.5l-1.3-0.2
	l-3.1-0.5l-0.8,2.8c-0.1,0.4-0.2,0.7-0.4,1l3.2,0.5l1.3,0.2l35.1,6.1l19.1,3.6l7,4.8c2.9,1.9,6.7,1.2,8.7-1.6c0.9-1.4,1.3-3.1,1-4.7
	C137.5,85.9,136.6,84.4,135.2,83.5z M78.3,49L64,56c-1.9,0.9-3.3,2.6-3.8,4.6l-4.1,15.2c-0.3,1.2-1.5,1.9-2.7,1.6
	c-0.6-0.2-1.1-0.5-1.4-1c-0.3-0.5-0.4-1.1-0.2-1.7L57,55.8c0.2-0.9,0.9-1.7,1.7-2.1l21.2-10.4L78.3,49z M102.5,56.7L90,53.3l2.5-9.1
	l12.5,3.4L102.5,56.7z M133.5,89.9c-0.7,1-2.1,1.3-3.1,0.6l-16.2-11.1c-0.8-0.6-1.3-1.4-1.4-2.4l-0.8-6.7l3.1-11.5l1.6,13.8
	c0.2,2.1,1.4,4,3.1,5.2l13,8.9c0.5,0.3,0.8,0.8,0.9,1.4C133.9,88.7,133.8,89.4,133.5,89.9z"/>
<path class="st3" d="M176.4,90.4l15.7,2.7l0.7-3.9l-15.7-2.7c-4.7-0.8-9.1,2.3-9.9,7l-0.3,1.7l-11.1-1.9c0.1,1.3-0.2,2.7-0.7,3.9
	l11.1,1.9l-0.3,1.7c-0.4,2.2,0.1,4.5,1.4,6.4c1.3,1.9,3.3,3.1,5.5,3.5l15.7,2.7l0.7-3.9l-15.7-2.7c-1.2-0.2-2.2-0.9-2.9-1.9
	c-0.7-1-1-2.2-0.8-3.4l0.3-1.7l20.1,3.5l0.7-3.9l-20.1-3.5l0.3-1.7C171.5,91.7,173.8,90,176.4,90.4z"/>
<path class="st3" d="M124.8,38.9c-2.5,1.4-5.4,1.8-8.1,1c-2.7-0.8-5.1-2.5-6.5-5c-0.6-0.9-1-1.9-1.2-2.9l-4.2-1.1
	c0.5,6.2,4.8,11.4,10.8,13c1.3,0.3,2.6,0.5,3.9,0.5c2.6,0,5.1-0.7,7.3-1.9c1.9-1,3.5-2.5,4.7-4.3l-4.2-1.3
	C126.6,37.7,125.8,38.3,124.8,38.9z"/>
<path class="st3" d="M108.8,28.8l20.3,5.5l3.9,1.1l8.3,2.3l1-3.9l-8.3-2.3c0.4-3.2-0.2-6.4-1.8-9.2c-1.9-3.4-5.1-5.8-8.9-6.8
	c-7.1-1.8-14.4,1.7-17.3,8.4l-8.3-2.3l-1,3.9l8.3,2.3L108.8,28.8z M119.4,19c0.9,0,1.9,0.1,2.8,0.4c2.7,0.7,5.1,2.5,6.5,5
	c1,1.9,1.5,4,1.4,6.1L109.8,25C111.6,21.3,115.4,19,119.4,19z"/>
<path class="st3" d="M132.3,127.3l-10.2-28.1c-0.5-1.5-0.7-3.2-0.3-4.8l-4-0.7c-0.5,2.3-0.3,4.6,0.5,6.8l10.2,28.1
	c0.3,0.9,0.5,1.9,0.5,2.9V155c0,3.3-2.6,5.9-5.9,5.9l0,0c-3.3,0-5.9-2.6-5.9-5.9v-20.7c0-1.5-0.3-2.9-0.8-4.3l-9.9-27.3
	c-0.8-2.2-3.3-3.2-5.4-2.4c-1.6,0.6-2.7,2.2-2.7,3.9v22.3c0,0.9-0.1,1.8-0.4,2.6l-8.8,27.7c-1,3.1-4.4,4.8-7.5,3.9
	c-1.5-0.5-2.7-1.5-3.5-2.9c-0.7-1.4-0.9-3-0.4-4.5l8.1-25.4c0.4-1.2,0.6-2.5,0.6-3.8V98.8c0-3.2,0.4-6.5,1.3-9.6l0.2-0.6l-4-0.7
	l-0.1,0.2c-0.9,3.5-1.4,7.1-1.4,10.7v25.3c0,0.9-0.1,1.8-0.4,2.6L74,152c-0.8,2.5-0.6,5.2,0.6,7.6c1.2,2.4,3.3,4.1,5.8,4.9
	c1,0.3,2,0.5,3,0.5c4.3,0,8.1-2.8,9.5-6.9l8.8-27.7c0.4-1.2,0.6-2.5,0.6-3.8v-22.3c0-0.2,0.3-0.2,0.3-0.1l9.9,27.3
	c0.3,0.9,0.5,1.9,0.5,2.9v20.7c0,5.5,4.5,9.9,9.9,9.9c0,0,0,0,0,0l0,0c5.5,0,9.9-4.4,9.9-9.9v-23.5
	C133,130.1,132.8,128.7,132.3,127.3z"/>
<path class="st3" d="M150.1,88.5l-13-8.9c-0.8-0.5-1.3-1.4-1.4-2.3l-2-16.9c-0.6-5.1-4.2-9.3-9.2-10.7l-22.2-6
	c-2.9-0.8-6.1-0.5-8.8,0.8L71.8,55c-1.9,0.9-3.2,2.6-3.8,4.6l-4.8,17.5l-18.5-3.2L44,77.8L62.7,81c0.1,0.8,0.4,1.5,0.8,2.2
	c1.7,3,5.5,4,8.5,2.3c1.1-0.7,2-1.7,2.6-2.9l0.1-0.2c0.1-0.2,0.1-0.4,0.2-0.6l0,0L79,66.6c0.2-0.9,0.9-1.7,1.7-2.1l11.1-5.4
	l-5.2,19.1l4,0.7l6.3-23l0,0l0.3-1l0.9-3.3l0,0l1.2-4.4c0.7,0,1.4,0.1,2,0.3l2.5,0.7l-3.5,13l20.1,5.4l3.5-13
	c1.6,0.5,3.1,1.5,4.1,2.9l-4.6,16.9l-2.9,10.7l1.5,0.3l2.5,0.4c0.5,1.2,1.4,2.2,2.5,2.9l1.2,0.8l-11.4-2.1l0,0L83,80.5l-1.3-0.2
	l-3.1-0.5l-0.8,2.8c-0.1,0.4-0.2,0.7-0.4,1l3.2,0.5l1.3,0.2l35.1,6.1l19.1,3.6l7,4.8c2.9,1.9,6.7,1.2,8.7-1.6c0.9-1.4,1.3-3.1,1-4.7
	C152.5,90.9,151.5,89.4,150.1,88.5z M93.3,54L79,61c-1.9,0.9-3.3,2.6-3.8,4.6l-4.1,15.2c-0.3,1.2-1.5,1.9-2.7,1.6
	c-0.6-0.2-1.1-0.5-1.4-1c-0.3-0.5-0.4-1.1-0.2-1.7L72,60.8c0.2-0.9,0.9-1.7,1.7-2.1l21.2-10.4L93.3,54z M117.4,61.7L105,58.3
	l2.5-9.1l12.5,3.4L117.4,61.7z M148.4,94.9c-0.7,1-2.1,1.3-3.1,0.6l-16.2-11.1c-0.8-0.6-1.3-1.4-1.4-2.4l-0.8-6.7l3.1-11.5l1.6,13.8
	c0.2,2.1,1.4,4,3.1,5.2l13,8.9c0.5,0.3,0.8,0.8,0.9,1.4C148.8,93.7,148.8,94.4,148.4,94.9z"/>
</svg>
