<svg xmlns="http://www.w3.org/2000/svg" viewBox="0 0 352.39 238.45"><defs><style>.cls-1{fill:none;stroke:#000;stroke-linecap:round;stroke-linejoin:round;stroke-width:2px;}</style></defs><g id="Layer_2" data-name="Layer 2"><g id="Layer_1-2" data-name="Layer 1"><path class="cls-1" d="M287.39,83.45c2.12-15,5.21-29.75,8.1-44.57C296.63,33,295.21,26,292.4,20c-2.22-4.77-4.22-9.62-9.5-12a23.62,23.62,0,0,0-10-2.47c-13,0-26-.3-39,.08-14.54.43-29-1.2-43.5-1.19-7.72,0-15.28-2.24-23-3s-15,.09-22.51.7c-7.3.6-13.64,3.71-20.16,7.14-5.91,3.11-13.23,3.44-19.83,5.34-12.92,3.73-25,9.14-35,18.46-4.52,4.22-7.57,9.32-10.07,15C51.36,67.08,42.33,86,29.92,103c-2.42,3.31-4.93,6.41-8.53,8.47"/><path class="cls-1" d="M304.39,237.45h-208"/><path class="cls-1" d="M8.89,112.45a40.45,40.45,0,0,1,7.37-10.23c2.07,3.82,2.25,6.08-.46,8.11-2.2,1.64-3.3,4.68-6.41,5.13-1.77.25-1,1.41-1.14,2.47-.29,1.69-.06,3.39-.41,5-.71,3.31-.78,6.59-3.31,9.63C-.23,138.29.25,145,3.45,151.42A11.71,11.71,0,0,1,4.88,158c-.65,6.72,1.44,13.3,1,20-.22,3.52,0,7-.86,10.54-1.54,6.5,1.75,10.2,8.34,9.34,5.31-.69,10.41-2,14.6-6.29,13.85-14.15,24.49-30,28.82-49.61.52-2.38,2.37-2.9,3.65-3.34a120.31,120.31,0,0,1,17.47-5,16.82,16.82,0,0,1,13.45,2.89c4.48,3.42,9.22,5.74,15,5"/><path class="cls-1" d="M296.39,90c6.3,3,7.51,9.33,9.4,15,1,3.15,1,6.65,1.63,10a5.17,5.17,0,0,1-2.06,5.47c-15.23,10.91-23.06,26.32-27.54,44-3.17,12.52-4.81,25.24-3.7,38,.74,8.5.55,17.11,2.27,25.52"/><path class="cls-1" d="M275.89,207.45c1.85-3.78,1.24-8,2.39-12,4.15-14.4,10.28-28,16.68-41.43,4.61-9.69,9.89-19.06,14.91-28.64,5.19,3.59,7.69,9.18,11,14.13a4,4,0,0,1,.65,4c-4.72,13.85-3.47,27.51,1.87,41a53.58,53.58,0,0,0,6.55,12.47c9.3,12.54,5.71,21.15-1.55,32.51-1.54,2.41-3.32,4.68-5,7"/><path class="cls-1" d="M134.89,111c.45,2.12-2.2,3-1.95,5.55a12.8,12.8,0,0,0,9.44,2.89c11.9-.81,23,3.4,34.54,4.8,10.68,1.29,21.62,4.54,32.43.66,2.18-.79,3.15.53,4.51,1.16,2.92,1.32,5.57,3.31,8.57,4.33,2.47.83,5.2,1.91,8,.61"/><path class="cls-1" d="M272.39,126.45c1.23,6.55-1.88,12.2-7.47,14.59-2.66,1.13-4.7-.44-7-.58-23.11-1.34-42.72,9.89-49,35.49a71.18,71.18,0,0,0-2.05,12.5c-.25,4,2.1,6.31,5.1,6.86,13,2.37,22.62,10.69,32.89,17.77,5.12,3.53,10.87,6.52,14.59,11.87"/><path class="cls-1" d="M208.39,194.45c-1.62,1.15-3.14,2.38-3.73,4.89,9,11.45,20.57,19.79,33.72,26.12,9.88,4.76,20.37,7.62,31,10"/><path class="cls-1" d="M211.89,196c6.85,9.6,16.27,16.21,26,22.52,7.49,4.87,15.77,7.08,24.52,8"/><path class="cls-1" d="M132.89,117.45c-3.94,5.74-5,12.59-6.9,19-2.8,9.36-4.91,18.94-7.32,28.41-2,7.83-3.21,15.85-5.68,23.59-1.28,4-3.19,6.93-7.1,8.46"/><path class="cls-1" d="M248.89,110c-2.68-6.64-.29-12.72,2.63-18.43,1.6-3.11,9.09-3.85,12.88-2.62A89.93,89.93,0,0,1,293,104.36c1.88,1.5,2.73,3.6,4.43,5.09"/><path class="cls-1" d="M94.39,178c-5,8-13.58,12.9-18.8,20.64,1.83,2.38,3.83,2.41,5.78,1.34,8.08-4.44,13.92-10.4,13.53-20.48-.23-5.71,2.73-10.76,3.29-16.47a107.11,107.11,0,0,0,.2-19"/><path class="cls-1" d="M17.39,110.45c3.28,2.09,6.79,3.75,10.06,5.91C33,120,39,122,45.9,120.52c2.07-.45,4.32-.07,6.49-.07"/><path class="cls-1" d="M306.39,118c-2.61-2.27-5.51-1.57-8.51-1-7.05,1.28-13.43,4.39-20,7-4.07,1.59-7.84,3.43-11,6.51a12.18,12.18,0,0,1-8,3c-5.49.29-10.92,1.74-16.51.62-2.3-.46-4.42.24-4,3.43"/><path class="cls-1" d="M297.89,100c-.39-10.19-2.73-13.42-12-16.5-5.36-1.78-5.77-3.14-4.08-8.52,1.39-4.46,1.7-9.16-2-12.94a5.71,5.71,0,0,1-2-4.54c.12-3.57-.53-7.2-4.47-8.41s-5.89,1.88-8,4c.4,3.88,3.8,5.71,4.54,8.94"/><path class="cls-1" d="M104.39,106c2,4.62,2.67,9.48,3.08,14.5a176.24,176.24,0,0,1-.72,32.49,73.33,73.33,0,0,1-9.9,30.49c-.21.34-1,.36-1.46.52"/><path class="cls-1" d="M321.39,237.45h30"/><path class="cls-1" d="M280.89,81c-2.27,1-5.55.08-6.88,4.11,10.36,1.57,16.6,9.26,23.82,15.46a4.91,4.91,0,0,1,2.06,4.43"/><path class="cls-1" d="M264.89,114c-1.72,1.64-3.17,3.62-6.22,4.4-.15,0-.44-.61-.82-1.38-4-8-7.26-8.39-14-2.57a55.11,55.11,0,0,0-11.46,14c-3,5.2-1.49,8.32,4.5,9a23.49,23.49,0,0,1,3.51,1"/><path class="cls-1" d="M255.39,62.45c2.82,2.3,6.44.2,9.58,1.84,1.87,1,3.88,1.62,5.76,3-1.81,1.62-4.38,1.51-5.34,3.67"/><path class="cls-1" d="M98.39,192.45c3.1,1.84,6.86,2.92,8.09,6.91-5.66,5.28-8.86,3.47-19.57,2.6-.73-1.88,1.67-3.13,1-5"/><path class="cls-1" d="M270.89,69c2.76,3.17-.68,6-.51,8.92-2.51.66-3.14-1-3.49-2.92"/><path class="cls-1" d="M264.89,54c-5.63-1-8.46,1.15-10.5,8"/><path class="cls-1" d="M264.89,122c-5,.72-9.37,3.43-14.46,4.28-3.36.56-6.46,3.57-8,7.22"/><path class="cls-1" d="M270.89,79c1.49,2.46,2.06,4-2,4.73-2.49.48-6.29-.57-7.54,3.27"/><path class="cls-1" d="M253.89,63c-2,1.34-1,3.43-.88,5,.2,3,.51,3-1.35,5.87,4.88,2.74,2.65,9.8,7.73,12.64"/><path class="cls-1" d="M265.89,111c-1.52,3.61.53,7.28-.22,11.06-.34,1.72,2.55,3.76,5.22,3.94"/><path class="cls-1" d="M257.39,118.45l-6,6.5"/></g></g></svg>