<?xml version="1.0" encoding="utf-8"?>
<!-- Generator: Adobe Illustrator 25.1.0, SVG Export Plug-In . SVG Version: 6.00 Build 0)  -->
<svg version="1.1" id="Layer_1" xmlns="http://www.w3.org/2000/svg" xmlns:xlink="http://www.w3.org/1999/xlink" x="0px" y="0px"
	 viewBox="0 0 566.6 300.2" style="enable-background:new 0 0 566.6 300.2;" xml:space="preserve">
<style type="text/css">
	.st0{fill:none;stroke:#000000;stroke-width:0.21;stroke-linecap:round;stroke-linejoin:round;}
</style>
<path class="st0" d="M532.9,209.9c1.1-13,12.3-38-7.6-41c-14.5,0-28.9,0.1-43.3-0.6c-7.9-0.6-15.9-2.7-23.9-1.2
	c-3.8,0.3-7.2,1.9-10.6,3.7c-9.9,3.2-21,4.7-28.8,12.5c-10.2,12.3-12.6,30.7-25.5,41.2"/>
<path class="st0" d="M386.8,225.1c1-2,2.3-3.8,3.9-5.4c1.1,2,1.2,3.2-0.2,4.3c-1.1,0.9-1.7,2.5-3.4,2.7c-0.9,0.1-0.5,0.8-0.6,1.3
	c-0.3,2.7-0.2,5.3-1.9,7.7c-2.5,3-2.3,6.5-0.6,9.9c1.3,4.4,0.8,9.4,1.3,13.9c0.2,4-2.9,11.4,3.9,10.4c12.5-2.4,19.6-18.1,22.8-29.3
	c2.1-3.3,7.6-3.1,11.1-4.4c5.8-1.6,9.2,5.2,15,4.1"/>
<path class="st0" d="M537.7,213.3c4.1,1.8,7.6,12.7,4.7,16c-17.3,12.8-18.1,37-15.2,56.5"/>
<path class="st0" d="M526.9,275c2.8-15.4,10.5-29.4,17.8-43.1c12.2,10.1-0.2,15.3,7.1,31c6.7,12,9.5,15.7,0,27.3"/>
<path class="st0" d="M452.9,224.4c0.2,1.1-1.2,1.6-1,2.9c1.4,1.2,3.2,1.7,5,1.5c11.9-0.5,23.3,6.2,35.1,2.9c3.9,0,6.8,4.8,11,3.2"/>
<path class="st0" d="M525.1,232.5c1.2,4.5-3.1,9.4-7.6,7.3c-14.5-1.6-26.3,9.8-26.8,25.2c-0.2,1.7,1,3.3,2.7,3.6
	c9.6,2.6,17.8,9,24.9,15.6"/>
<path class="st0" d="M491.5,268.2c-1,0.5-1.7,1.5-2,2.6c8.3,10.5,21,16.4,34,19"/>
<path class="st0" d="M493.3,269c6.5,8.1,15.9,15.1,26.5,16"/>
<path class="st0" d="M451.8,227.8c-6.4,9.3-6.4,36.8-14.2,41.7"/>
<path class="st0" d="M512.7,223.8c-4.1-19.9,19.1-8.6,25.5-0.3"/>
<path class="st0" d="M431.6,259.5c-2.6,4.2-7.1,6.8-9.9,10.8c4.2,3.6,10.9-5.5,10.1-10c0.9-6.2,2.8-12.3,1.8-18.6"/>
<path class="st0" d="M391.2,224.1c5.7,4,11.3,6.4,18.4,5.3"/>
<path class="st0" d="M542.9,228c-4.8-2.4-10.3,1.7-15,3.1c-3.8,0.8-6,5-10,5c-2.9,0.1-5.7,0.9-8.7,0.3c-1.2-0.2-2.3,0.1-2.1,1.8"/>
<path class="st0" d="M538.4,218.6c0.8-10.9-11-6-8.4-13.1c1.8-4.2-1.1-5.7-2.1-9.2c0.6-4.6-4.2-6-6.5-2.3c0.2,2,2,3,2.4,4.7"/>
<path class="st0" d="M436.9,221.7c3.2,12.8,3.4,30.2-4.7,40.9"/>
<path class="st0" d="M550.8,290.8h15.7"/>
<path class="st0" d="M529.5,208.6c-1.2,0.5-2.9,0.1-3.6,2.2c5.1,1.1,11.9,5.9,13.6,10.4"/>
<path class="st0" d="M521.1,225.9c-5.6,6.9-3.4-6.9-11.1,0.2c-3.8,3.5-11.5,11.9-1.8,12.6"/>
<path class="st0" d="M516.1,198.9c2.6,1.1,5.6,0.4,8,2.6c-1,0.9-2.3,0.8-2.8,1.9"/>
<path class="st0" d="M433.7,267.1c1.6,1,3.6,1.5,4.3,3.6c-3,2.8-4.7,1.8-10.3,1.4c-0.4-1,0.9-1.6,0.5-2.6"/>
<path class="st0" d="M524.3,202.3c1.5,1.7-0.4,3.1-0.3,4.7c-1.3,0.3-1.6-0.5-1.8-1.5"/>
<path class="st0" d="M521.1,194.4c-3-0.5-4.4,0.6-5.5,4.2"/>
<path class="st0" d="M521.1,230.1c-4,1.5-10,1.5-11.8,6"/>
<path class="st0" d="M524.3,207.6c2.6,3.9-4.2,1.2-5,4.2"/>
<path class="st0" d="M515.3,199.2c-1.7,1.9,0.7,3.7-1.2,5.7c2.6,1.4,1.4,5.1,4,6.6"/>
<path class="st0" d="M521.7,224.4c-0.8,1.9,0.3,3.8-0.1,5.8c-0.2,0.9,1.3,2,2.7,2.1"/>
<path class="st0" d="M517.2,228.3l-3.2,3.4"/>
<path class="st0" d="M352.3,260.1c0.7,6.5,0.9,13.1,2.9,19.3c1.1,4.1,2.7,10.2-3.5,11c-4.4-0.2-13.6,1.9-14.3-4.1
	c0.8-8.4,3.3-17.3,6.3-24.9"/>
<path class="st0" d="M360.6,260.6c4,4.5-2.6,28.9,3.3,29.6c28.1,1.2,147.8,0.4,178,0.6"/>
<path class="st0" d="M371.8,213.6c-2.9-1.4-6.5,0.1-9.2,1.5c-5.7,6.3,13.2,6.2,16.2,3.9c7.2-2.5-11-21.5-12.8-26.4
	c-1.7-3-8.3-4.1-11.1-2.7c-2.1,2.7-4.9,3.5-8,2.3"/>
<path class="st0" d="M353.5,205c0,0.7,0.5,0.6,0.9,0.6c7,0,14,2.3,19.9,5.8c-7.2,2-15.9-1.5-22.5-4.8"/>
<path class="st0" d="M337.4,180.5c7.5-5.1,18.4,2.6,26.5,4c-0.7-6.3-7-11.6-10.5-16.8c-1.2-1.4-1.2-1.4-2.7-0.6
	c-18.4,13.4-20.1,13.7,3.4,17.6"/>
<path class="st0" d="M307,196.5c0.2-2-2.3-3.6-4-4.3c-2.9-1.3-7,4.9-3.7,6.4c7.2,0.2,4.3,5.6,15.2,7.3c3.7,0.8,18,0.4,20.5-2.4"/>
<path class="st0" d="M353.4,205.3c-4.1,1.2-1.9,16.3-2.7,20.6c0.9,3.3,10,4.2,13.3,4.7"/>
<path class="st0" d="M342.4,182.7c5.4,11.2-4.2,3.1-9.2,7.3c-18.2,16.5-22.1,3-27.8,8.2"/>
<path class="st0" d="M334.5,200.4c-1-1.3-1.4-2.9-1.1-4.6c1.6,0.4,1.3,3.2,1.3,4.6c-0.1,2.9,2.2,5.2,2,8.2
	c1.7,6.8-4.8,22.1,0.9,25.3"/>
<path class="st0" d="M372,213.6c14-2.7-14.7-10.8-18.3-8.7"/>
<path class="st0" d="M341.4,234.4c-2.4-0.5-6.6-1.4-7.3,1.7c-1.4,7.4-4.8,15.3-3.5,22.8c-3.8,1.6,0.9,3.2,2.9,2.9"/>
<path class="st0" d="M364.4,230.3c1-3,1.5-7.7,4.9-8.8c0.9-0.1,1.1,0,0.9,0.9c-1.3,2.8-1.2,8.6-5.3,8.1c-4.7,4.7-0.1,13.8-1,20.1
	c-1.2,17.3-3.9,5.6-14.8,7.9c-5-1.6,2.1-13-3.2-15.4c-0.3,2.7,0.2,6.2,1.3,8.7"/>
<path class="st0" d="M361.9,236.8c-4.4-2-10-1.3-14.8-2.2c-1.7,0.2-4.6-1.5-5.7,0"/>
<path class="st0" d="M362.4,236.7c-6.8,1.7-14.1-0.8-20.9-2.1"/>
<path class="st0" d="M333.9,262l8.7,0.4"/>
<path class="st0" d="M354.9,182c-1.2,3.6-0.1,8-4.3,10.5"/>
<path class="st0" d="M354.4,184.8c2.6,0.6,5.3,0.7,7.9,0.4l-0.7-1"/>
<path class="st0" d="M359.5,260.1c-5,0.9-10.9-1.7-15.7,0.2"/>
<path class="st0" d="M317.5,198.7c0.2,2.4,0.8,4.8,1.9,7"/>
<path class="st0" d="M113.1,232.4C62.9,229,61,232.9,46,279c-4.7,23.2-27.9,17.7-45.9,18.8"/>
<path class="st0" d="M117.2,238.7c9.7,3,16,13.4,26.8,14.4c2.7,0.4,2.8-0.1,2.4-2.2c-1.5-7.9-3.8-15.6-5.4-23.5
	c-1-4.2-8.9-0.1-12.1-0.5c-5.9,1.1-21.7,1.3-12.8,10.2c1.5,1.6,0.3,3.5-0.3,5.3c-4.2,10.6,12.9,17,16.7,6.8"/>
<path class="st0" d="M77.9,270.7c5.4,2.6,14,10.6,13.9,17c0.6,2.7-4.3,11.2-1.5,11.8c3.1-0.4,8.2,1.8,10.1-1.2
	c2.4-5.6,2.8-11.8,4.7-17.5"/>
<path class="st0" d="M91.8,261.4c-20.8,6.6-15.6-9.7-25.7-21.2c-7-3.5,6.7,18.7,9.2,19"/>
<path class="st0" d="M108.8,252.7c1.3-3.8-3-4.8-5.8-6c-7.1-1.6-8.7,9.8-11,14.5c-0.7,4.6-5.3,13.1,0.4,15.7c7,1,14.4,1.7,21.3,0.6"
	/>
<path class="st0" d="M76.9,261.3c0.4,3.3,3.5,7.4,0,10.1c-6.6,4.3-11.1,11.2-16.7,16.8c-2.3,3.3-6.7,6.1-7.7,10"/>
<path class="st0" d="M76.5,271.7c-6.8,9.7-16.3,19.3-24.9,27.4"/>
<path class="st0" d="M108.2,253c11-5.6-1.1,9.1,5.2,13c2.1,2.8,6.1,4.7,7.3,8c-1.8,0.6-3.3-0.5-4.7-1.4c-3.7-2.4-7.6-4.4-11.4-6.6
	c-4.2-1.5-7.2-6.3-12-5.2"/>
<path class="st0" d="M119.5,274.3c11.5,7.9-2,11.6-5.8,3.3"/>
<path class="st0" d="M101,267.6c4.2,3.3,9.6,4.7,14.8,5.1"/>
<path class="st0" d="M111.8,251.8c-1.4,5.1-5,9.4-8.3,13.5"/>
<path class="st0" d="M118.8,239.2c2.4,3,6.1,5.7,9.6,6.9"/>
<path class="st0" d="M113.9,277.6c4.1-3.3-1-4.6-0.2-0.1"/>
<path class="st0" d="M115.2,245c-1.4,1.9-1.9,4.3-2.9,6.4"/>
<path class="st0" d="M102.9,265.5c-0.6,0.4-2.1,2.7-2.9,2.2c-0.1,0-0.7-0.1-0.6,0.5"/>
<path class="st0" d="M241,219c15.1-10,6.3-15.6,33.1-2.9c30.3,21.2,13.5,26.2,4.7,51.2c-1.8,7.5,1.5,15.1,2.8,22.5
	c0.4,2.1,3.1,1.8,4.7,1.9c13-1.6,41.8,1.1,46.5-13c2-3.9-1.5-18.3,2-19.2c2.7,0.5,6.1,0,8.4,1.3c0.3,0.8,0.8,0.6,1.3,0.7"/>
<path class="st0" d="M196.1,205c-5,3-7.1,13.1-9.2,18.7c0.3,4.4,4.4,8.1,6,1.7c9-25.9,0.5-24.6,25.2,2.5"/>
<path class="st0" d="M226.4,221.8c2.1-7.8,3.5-16.7,7-24.1c3.9-1.9,9,1.1,13.2,1.4c3,0.9,6.6,0.9,9.2,2.3
	c-5.4,4.3-12.5,6.8-18.1,11.2c-0.3,0.2-0.6,0.4-0.6,0.8c-0.3,0.6-1.3,1.1-0.7,2c1.6,1.4,3.3,3,5,4.1c1.1,0.2,3.3-0.5,3.3,1.2"/>
<path class="st0" d="M253.1,228.8c-1.7,2.8-2.6,7.1-6.6,7.3c-6.6,0.8-13.1-0.8-19.6-1.9c-1.6,0.4,1.2,2.6,1.5,3.4
	c1.9,1.8,14.9,19.6,6.1,11.2"/>
<path class="st0" d="M196.1,205.1c0,0,0-0.1,0-0.1c1.7-0.1,2.5-3.7,4.3-2.4c7.7,7.7,14.7,16.5,21.7,24.8"/>
<path class="st0" d="M242.3,219.7c0.5,0.7,1.4,0.9,2.2,1c0.6,0,0.6,0,0.6,0.6c-1.2,12.1-14.5,7.7-22.3,6.4"/>
<path class="st0" d="M260.8,243.7c-6.3,0.1-10.2,6.9-15.8,8.5c-1.5-1.4-2.8-3.6-3.3-5.7"/>
<path class="st0" d="M263,244.1c-1.8-2.6-4.6-4.9-7-6.8c-2.6-3.3-3-8-2.2-11.9c0-2.5,0.3-6,1.6-8.1c0.9,2.5-0.3,6-1.5,8.2"/>
<path class="st0" d="M218.3,228c5.3,6.8,10.7,13.6,16.1,20.5c0,0.1,0.1,0.1,0.2,0.1"/>
<path class="st0" d="M235.8,247.4c-6.5,5.6,5.7,9.1,8.1,3.7"/>
<path class="st0" d="M236.1,247.4c11.2-0.3,11.5-9.6,18.9-11.2"/>
<path class="st0" d="M226.6,221.5c3.2-2.9,6.5-6.8,10.6-8.4"/>
<path class="st0" d="M240.7,219.4c-4.4,1.5-9.6,3.2-14.1,2.5"/>
<path class="st0" d="M254.5,202.9c7.9-1.2,1.5,3-0.4,5.8"/>
<path class="st0" d="M223.2,234.1c2.6-1,0.5-5.8-1.2-6.7c-8.8-0.5-5.4,6.7,0.8,6.6"/>
<path class="st0" d="M256.6,238c1.6,3.4,5.6,7.4,8.8,9.2"/>
<path class="st0" d="M245.9,215.9c0.1,0.2,0,0.4-0.1,0.6c-1.5,1.5,1.3,3.6-0.8,4.4"/>
<path class="st0" d="M263.7,244.5c8,0.1,3.5-0.8,8.1-4.8c1.1,1.5-1.1,4.2-2.8,4.1"/>
<path class="st0" d="M230.2,222.2c-0.7,0.5-5,1.5-3.9-0.3"/>
<path class="st0" d="M253,209.2c-0.8,1.2-2.4,2.7-3.8,3.3"/>
<path class="st0" d="M242.4,246.2c0.7,1.1,1.7,2.7,1.1,3.9"/>
<path class="st0" d="M262,244.3c1.7-0.7,3,1.8,3.7,3.1"/>
<path class="st0" d="M169.4,65.9c1.7-9.5,14.1-8.4,19.7-3.6c12.3-8.5,11.2-23.7-2.2-31.7c1.8-6.1-3.1-10.6-9.2-9.8
	c-0.8-4.1,0.9-8.5-1-12.6c-2.5-8.5-12.8-11.8-17.4-1.7c-0.9,2.3-3,3.9-5.4,4.2c-8,1.5-10.8,13.8-7,21.4
	c-13.5-0.7-16.6,16.9-9.5,25.8c-5.3,2.7-5.5,7.4-5.3,12.1c-16.6,4.2-10.8,16.8-12.9,29.6c-0.5,1.3-1,3.5,0.8,4.9"/>
<path class="st0" d="M185,151.7c-3.1,13.6-14.7,12.2-14,19.2c0.4,10.6,0,120.6,0.1,129.2c20.1,0.1,30.7-0.3,56.3-0.1
	c6.5-1,15.6,2.3,20.8-1.5c7.5-17.7,13.2-36.3,20.2-54.1"/>
<path class="st0" d="M159.1,151.7c2.4,18,3.7,132-0.8,148.4h-37.5c-6-0.2-12.1,0.4-18-0.5c-2-0.4-0.4-2.5-1-3.7"/>
<path class="st0" d="M193.9,59.6c2.3,7.3,2,10.3-2.2,21.5c12.4,6.2,14.2,15.6,12.5,29c16.8,8,10.5,39.3-7.8,31.2
	c-4,4.3-3.9,13-11.9,9.5"/>
<path class="st0" d="M185.4,135.6c-3,7.4-10.9,5.6-17.6,5.8c1.9,6.5,2.2,12.8,3.2,19c5.5-2.1,7.6-6.5,9.6-11.2l3.5,1.1"/>
<path class="st0" d="M167.1,114.1c1.7-6.6,4.1-16.4,12.9-14.7c2.5-20.6-21.1-28.8-29-7c-12.9-6.4-26.1,3.8-24.4,17.7
	c-3.3,0-4.8-2-6.5-3.6"/>
<path class="st0" d="M155.9,124c0-10.3-12.5-14.8-20.8-9.5c-2.1-12.6-13.5-16.8-17.9-3c-0.3,3.8-1.1,6.5-4.9,8.7
	c-7.7,5.9-3.3,21.5,8.8,17.6c0.8,12.3,9.3,21.4,20.6,11.7c4.7,7.7,8.4,9.7,16.1,1.8"/>
<path class="st0" d="M193,56.5c-5.4-6.5-10.9-7.6-18.8-3.6c-4.9-15.5-16.2-12.5-19.3-0.1c7.6-0.5,11.4,4,14,10.3"/>
<path class="st0" d="M167.1,115.9c-4-4.8-8.1,2.2-10.7,4.9"/>
<path class="st0" d="M185,139.2c0.9,3.8,0.7,7.9-0.4,11.6"/>
</svg>
