<svg xmlns="http://www.w3.org/2000/svg" viewBox="0 0 192.75 165"><defs><style>.cls-1{opacity:0.1;}.cls-2{fill:#1c7f00;}.cls-3{opacity:0.4;}.cls-4{opacity:0.7;}</style></defs><g id="Layer_2" data-name="Layer 2"><g id="Layer_1-2" data-name="Layer 1"><g class="cls-1"><path class="cls-2" d="M132.4,75.4l15.7,2.7.7-3.9-15.7-2.7a8.58,8.58,0,0,0-9.9,7l-.3,1.7-11.1-1.9a8.48,8.48,0,0,1-.7,3.9l11.1,1.9-.3,1.7a8.52,8.52,0,0,0,1.4,6.4,8.43,8.43,0,0,0,5.5,3.5l15.7,2.7.7-3.9-15.7-2.7a4.42,4.42,0,0,1-2.9-1.9,4.58,4.58,0,0,1-.8-3.4l.3-1.7,20.1,3.5.7-3.9-20.1-3.5.3-1.7A4.66,4.66,0,0,1,132.4,75.4Z"/><path class="cls-2" d="M80.9,23.9a10.47,10.47,0,0,1-8.1,1,10.88,10.88,0,0,1-6.5-5A8.13,8.13,0,0,1,65.1,17l-4.2-1.1A15,15,0,0,0,62.8,22a15,15,0,0,0,8.9,6.9,17.37,17.37,0,0,0,3.9.5,15.88,15.88,0,0,0,7.3-1.9,13.86,13.86,0,0,0,4.7-4.3l-4.2-1.3A12.21,12.21,0,0,1,80.9,23.9Z"/><path class="cls-2" d="M64.9,13.8l20.3,5.5,3.9,1.1,8.3,2.3,1-3.9-8.3-2.3a14.88,14.88,0,0,0-1.8-9.2A14.59,14.59,0,0,0,79.4.5,14.85,14.85,0,0,0,62,8.9L53.7,6.6l-1,3.9L61,12.8ZM75.5,4a9,9,0,0,1,2.8.4,10.6,10.6,0,0,1,6.5,5,11,11,0,0,1,1.4,6.1L65.9,10A10.73,10.73,0,0,1,75.5,4Z"/><path class="cls-2" d="M88.3,112.3,78.1,84.2a8.69,8.69,0,0,1-.3-4.8l-4-.7a12.13,12.13,0,0,0,.5,6.8l10.2,28.1a9.29,9.29,0,0,1,.5,2.9V140a5.91,5.91,0,0,1-5.9,5.9h0a5.91,5.91,0,0,1-5.9-5.9V119.3a12.6,12.6,0,0,0-.8-4.3L62.5,87.7a4.19,4.19,0,0,0-8.1,1.5v22.3a7.46,7.46,0,0,1-.4,2.6l-8.8,27.7a6.07,6.07,0,0,1-7.5,3.9,6.26,6.26,0,0,1-3.5-2.9,5.88,5.88,0,0,1-.4-4.5l8.1-25.4a12.09,12.09,0,0,0,.6-3.8V83.8a34.73,34.73,0,0,1,1.3-9.6l.2-.6-4-.7-.1.2a43,43,0,0,0-1.4,10.7v25.3a7.46,7.46,0,0,1-.4,2.6l-8,25.3a10.05,10.05,0,0,0,.6,7.6,9.71,9.71,0,0,0,5.8,4.9,10.47,10.47,0,0,0,3,.5,10.06,10.06,0,0,0,9.5-6.9l8.8-27.7a12.09,12.09,0,0,0,.6-3.8V89.3c0-.2.3-.2.3-.1l9.9,27.3a9.29,9.29,0,0,1,.5,2.9v20.7A9.92,9.92,0,0,0,79,150h0a9.92,9.92,0,0,0,9.9-9.9V116.6A10.45,10.45,0,0,0,88.3,112.3Z"/><path class="cls-2" d="M106.2,73.5l-13-8.9a3.15,3.15,0,0,1-1.4-2.3l-2-16.9a12.62,12.62,0,0,0-9.2-10.7l-22.2-6a12.73,12.73,0,0,0-8.8.8L27.8,40A7,7,0,0,0,24,44.6L19.2,62.1.7,58.9,0,62.8,18.7,66a5.84,5.84,0,0,0,.8,2.2,6.24,6.24,0,0,0,11.1-.6l.1-.2c.1-.2.1-.4.2-.6h0L35,51.6a3.26,3.26,0,0,1,1.7-2.1l11.1-5.4L42.6,63.2l4,.7,6.3-23h0l.3-1,.9-3.3h0l1.2-4.4a6.93,6.93,0,0,1,2,.3l2.5.7-3.5,13,20.1,5.4,3.5-13A8.4,8.4,0,0,1,84,41.5L79.4,58.4,76.5,69.1l1.5.3,2.5.4A6.4,6.4,0,0,0,83,72.7l1.2.8L72.8,71.4h0L39,65.5l-1.3-.2-3.1-.5-.8,2.8a3,3,0,0,1-.4,1l3.2.5,1.3.2L73,75.4,92.1,79l7,4.8a6.37,6.37,0,0,0,8.7-1.6,6.46,6.46,0,0,0,1-4.7A6.19,6.19,0,0,0,106.2,73.5ZM49.3,39,35,46a7,7,0,0,0-3.8,4.6L27.1,65.8a2.25,2.25,0,0,1-2.7,1.6,2.43,2.43,0,0,1-1.4-1,2,2,0,0,1-.2-1.7L28,45.8a3.26,3.26,0,0,1,1.7-2.1L50.9,33.3Zm24.2,7.7L61,43.3l2.5-9.1L76,37.6Zm31,33.2a2.25,2.25,0,0,1-3.1.6L85.2,69.4A3.34,3.34,0,0,1,83.8,67L83,60.3l3.1-11.5,1.6,13.8a7.31,7.31,0,0,0,3.1,5.2l13,8.9a1.94,1.94,0,0,1,.9,1.4A2.2,2.2,0,0,1,104.5,79.9Z"/></g><g class="cls-3"><path class="cls-2" d="M146.4,80.4l15.7,2.7.7-3.9-15.7-2.7a8.58,8.58,0,0,0-9.9,7l-.3,1.7-11.1-1.9a8.48,8.48,0,0,1-.7,3.9l11.1,1.9-.3,1.7a8.52,8.52,0,0,0,1.4,6.4,8.43,8.43,0,0,0,5.5,3.5l15.7,2.7.7-3.9-15.7-2.7a4.42,4.42,0,0,1-2.9-1.9,4.58,4.58,0,0,1-.8-3.4l.3-1.7,20.1,3.5.7-3.9-20.1-3.5.3-1.7A4.66,4.66,0,0,1,146.4,80.4Z"/><path class="cls-2" d="M94.9,28.9a10.47,10.47,0,0,1-8.1,1,10.88,10.88,0,0,1-6.5-5A8.13,8.13,0,0,1,79.1,22l-4.2-1.1a14.76,14.76,0,0,0,10.8,13,17.37,17.37,0,0,0,3.9.5,15.88,15.88,0,0,0,7.3-1.9,13.86,13.86,0,0,0,4.7-4.3l-4.2-1.3A12.21,12.21,0,0,1,94.9,28.9Z"/><path class="cls-2" d="M78.9,18.8l20.3,5.5,3.9,1.1,8.3,2.3,1-3.9-8.3-2.3a14.88,14.88,0,0,0-1.8-9.2,14.59,14.59,0,0,0-8.9-6.8A14.85,14.85,0,0,0,76,13.9l-8.3-2.3-1,3.9L75,17.8ZM89.5,9a9,9,0,0,1,2.8.4,10.6,10.6,0,0,1,6.5,5,11,11,0,0,1,1.4,6.1L79.9,15A10.73,10.73,0,0,1,89.5,9Z"/><path class="cls-2" d="M102.3,117.3,92.1,89.2a8.69,8.69,0,0,1-.3-4.8l-4-.7a12.13,12.13,0,0,0,.5,6.8l10.2,28.1a9.29,9.29,0,0,1,.5,2.9V145a5.91,5.91,0,0,1-5.9,5.9h0a5.91,5.91,0,0,1-5.9-5.9V124.3a12.6,12.6,0,0,0-.8-4.3L76.5,92.7a4.19,4.19,0,0,0-8.1,1.5v22.3a7.46,7.46,0,0,1-.4,2.6l-8.8,27.7a6.07,6.07,0,0,1-7.5,3.9,6.26,6.26,0,0,1-3.5-2.9,5.88,5.88,0,0,1-.4-4.5l8.1-25.4a12.09,12.09,0,0,0,.6-3.8V88.8a34.73,34.73,0,0,1,1.3-9.6l.2-.6-4-.7-.1.2a43,43,0,0,0-1.4,10.7v25.3a7.46,7.46,0,0,1-.4,2.6l-8,25.3a10.05,10.05,0,0,0,.6,7.6,9.71,9.71,0,0,0,5.8,4.9,10.47,10.47,0,0,0,3,.5,10.06,10.06,0,0,0,9.5-6.9l8.8-27.7a12.09,12.09,0,0,0,.6-3.8V94.3c0-.2.3-.2.3-.1l9.9,27.3a9.29,9.29,0,0,1,.5,2.9v20.7A9.92,9.92,0,0,0,93,155h0a9.92,9.92,0,0,0,9.9-9.9V121.6A10.45,10.45,0,0,0,102.3,117.3Z"/><path class="cls-2" d="M120.2,78.5l-13-8.9a3.15,3.15,0,0,1-1.4-2.3l-2-16.9a12.62,12.62,0,0,0-9.2-10.7l-22.2-6a12.73,12.73,0,0,0-8.8.8L41.8,45A7,7,0,0,0,38,49.6L33.2,67.1,14.7,63.9,14,67.8,32.7,71a5.84,5.84,0,0,0,.8,2.2,6.24,6.24,0,0,0,11.1-.6l.1-.2c.1-.2.1-.4.2-.6h0L49,56.6a3.26,3.26,0,0,1,1.7-2.1l11.1-5.4L56.6,68.2l4,.7,6.3-23h0l.3-1,.9-3.3h0l1.2-4.4a6.93,6.93,0,0,1,2,.3l2.5.7-3.5,13,20.1,5.4,3.5-13A8.4,8.4,0,0,1,98,46.5L93.4,63.4,90.5,74.1l1.5.3,2.5.4A6.4,6.4,0,0,0,97,77.7l1.2.8L86.8,76.4h0L53,70.5l-1.3-.2-3.1-.5-.8,2.8a3,3,0,0,1-.4,1l3.2.5,1.3.2L87,80.4,106.1,84l7,4.8a6.37,6.37,0,0,0,8.7-1.6,6.46,6.46,0,0,0,1-4.7A6.19,6.19,0,0,0,120.2,78.5ZM63.3,44,49,51a7,7,0,0,0-3.8,4.6L41.1,70.8a2.25,2.25,0,0,1-2.7,1.6,2.43,2.43,0,0,1-1.4-1,2,2,0,0,1-.2-1.7L42,50.8a3.26,3.26,0,0,1,1.7-2.1L64.9,38.3Zm24.2,7.7L75,48.3l2.5-9.1L90,42.6Zm31,33.2a2.25,2.25,0,0,1-3.1.6L99.2,74.4A3.34,3.34,0,0,1,97.8,72L97,65.3l3.1-11.5,1.6,13.8a7.31,7.31,0,0,0,3.1,5.2l13,8.9a1.94,1.94,0,0,1,.9,1.4A2.2,2.2,0,0,1,118.5,84.9Z"/></g><g class="cls-4"><path class="cls-2" d="M161.4,85.4l15.7,2.7.7-3.9-15.7-2.7a8.58,8.58,0,0,0-9.9,7l-.3,1.7-11.1-1.9a8.48,8.48,0,0,1-.7,3.9l11.1,1.9-.3,1.7a8.52,8.52,0,0,0,1.4,6.4,8.43,8.43,0,0,0,5.5,3.5l15.7,2.7.7-3.9-15.7-2.7a4.42,4.42,0,0,1-2.9-1.9,4.58,4.58,0,0,1-.8-3.4l.3-1.7,20.1,3.5.7-3.9-20.1-3.5.3-1.7A4.66,4.66,0,0,1,161.4,85.4Z"/><path class="cls-2" d="M109.9,33.9a10.47,10.47,0,0,1-8.1,1,10.88,10.88,0,0,1-6.5-5A8.13,8.13,0,0,1,94.1,27l-4.2-1.1a14.76,14.76,0,0,0,10.8,13,17.37,17.37,0,0,0,3.9.5,15.88,15.88,0,0,0,7.3-1.9,13.86,13.86,0,0,0,4.7-4.3l-4.2-1.3A12.21,12.21,0,0,1,109.9,33.9Z"/><path class="cls-2" d="M93.9,23.8l20.3,5.5,3.9,1.1,8.3,2.3,1-3.9-8.3-2.3a14.88,14.88,0,0,0-1.8-9.2,14.59,14.59,0,0,0-8.9-6.8A14.85,14.85,0,0,0,91,18.9l-8.3-2.3-1,3.9L90,22.8ZM104.5,14a9,9,0,0,1,2.8.4,10.6,10.6,0,0,1,6.5,5,11,11,0,0,1,1.4,6.1L94.9,20A10.73,10.73,0,0,1,104.5,14Z"/><path class="cls-2" d="M117.3,122.3,107.1,94.2a8.69,8.69,0,0,1-.3-4.8l-4-.7a12.13,12.13,0,0,0,.5,6.8l10.2,28.1a9.29,9.29,0,0,1,.5,2.9V150a5.91,5.91,0,0,1-5.9,5.9h0a5.91,5.91,0,0,1-5.9-5.9V129.3a12.6,12.6,0,0,0-.8-4.3L91.5,97.7a4.19,4.19,0,0,0-8.1,1.5v22.3a7.46,7.46,0,0,1-.4,2.6l-8.8,27.7a6.07,6.07,0,0,1-7.5,3.9,6.26,6.26,0,0,1-3.5-2.9,5.88,5.88,0,0,1-.4-4.5l8.1-25.4a12.09,12.09,0,0,0,.6-3.8V93.8a34.73,34.73,0,0,1,1.3-9.6l.2-.6-4-.7-.1.2a43,43,0,0,0-1.4,10.7v25.3a7.46,7.46,0,0,1-.4,2.6l-8,25.3a10.05,10.05,0,0,0,.6,7.6,9.71,9.71,0,0,0,5.8,4.9,10.47,10.47,0,0,0,3,.5,10.06,10.06,0,0,0,9.5-6.9l8.8-27.7a12.09,12.09,0,0,0,.6-3.8V99.3c0-.2.3-.2.3-.1l9.9,27.3a9.29,9.29,0,0,1,.5,2.9v20.7A9.92,9.92,0,0,0,108,160h0a9.92,9.92,0,0,0,9.9-9.9V126.6A10.45,10.45,0,0,0,117.3,122.3Z"/><path class="cls-2" d="M135.2,83.5l-13-8.9a3.15,3.15,0,0,1-1.4-2.3l-2-16.9a12.62,12.62,0,0,0-9.2-10.7l-22.2-6a12.73,12.73,0,0,0-8.8.8L56.8,50A7,7,0,0,0,53,54.6L48.2,72.1,29.7,68.9,29,72.8,47.7,76a5.84,5.84,0,0,0,.8,2.2,6.24,6.24,0,0,0,11.1-.6l.1-.2c.1-.2.1-.4.2-.6h0L64,61.6a3.26,3.26,0,0,1,1.7-2.1l11.1-5.4L71.6,73.2l4,.7,6.3-23h0l.3-1,.9-3.3h0l1.2-4.4a6.93,6.93,0,0,1,2,.3l2.5.7-3.5,13,20.1,5.4,3.5-13a8.4,8.4,0,0,1,4.1,2.9l-4.6,16.9-2.9,10.7,1.5.3,2.5.4a6.4,6.4,0,0,0,2.5,2.9l1.2.8-11.4-2.1h0L68,75.5l-1.3-.2-3.1-.5-.8,2.8a3,3,0,0,1-.4,1l3.2.5,1.3.2L102,85.4,121.1,89l7,4.8a6.37,6.37,0,0,0,8.7-1.6,6.46,6.46,0,0,0,1-4.7A6.19,6.19,0,0,0,135.2,83.5ZM78.3,49,64,56a7,7,0,0,0-3.8,4.6L56.1,75.8a2.25,2.25,0,0,1-2.7,1.6,2.43,2.43,0,0,1-1.4-1,2,2,0,0,1-.2-1.7L57,55.8a3.26,3.26,0,0,1,1.7-2.1L79.9,43.3Zm24.2,7.7L90,53.3l2.5-9.1L105,47.6Zm31,33.2a2.25,2.25,0,0,1-3.1.6L114.2,79.4a3.34,3.34,0,0,1-1.4-2.4l-.8-6.7,3.1-11.5,1.6,13.8a7.31,7.31,0,0,0,3.1,5.2l13,8.9a1.94,1.94,0,0,1,.9,1.4A2.2,2.2,0,0,1,133.5,89.9Z"/></g><path class="cls-2" d="M176.35,90.4l15.7,2.7.7-3.9-15.7-2.7a8.58,8.58,0,0,0-9.9,7l-.3,1.7-11.1-1.9a8.48,8.48,0,0,1-.7,3.9l11.1,1.9-.3,1.7a8.52,8.52,0,0,0,1.4,6.4,8.43,8.43,0,0,0,5.5,3.5l15.7,2.7.7-3.9-15.7-2.7a4.42,4.42,0,0,1-2.9-1.9,4.58,4.58,0,0,1-.8-3.4l.3-1.7,20.1,3.5.7-3.9-20.1-3.5.3-1.7A4.66,4.66,0,0,1,176.35,90.4Z"/><path class="cls-2" d="M124.85,38.9a10.47,10.47,0,0,1-8.1,1,10.88,10.88,0,0,1-6.5-5,8.13,8.13,0,0,1-1.2-2.9l-4.2-1.1a14.76,14.76,0,0,0,10.8,13,17.37,17.37,0,0,0,3.9.5,15.88,15.88,0,0,0,7.3-1.9,13.86,13.86,0,0,0,4.7-4.3l-4.2-1.3A12.21,12.21,0,0,1,124.85,38.9Z"/><path class="cls-2" d="M108.85,28.8l20.3,5.5,3.9,1.1,8.3,2.3,1-3.9-8.3-2.3a14.88,14.88,0,0,0-1.8-9.2,14.59,14.59,0,0,0-8.9-6.8A14.85,14.85,0,0,0,106,23.9l-8.3-2.3-1,3.9,8.3,2.3Zm10.6-9.8a9,9,0,0,1,2.8.4,10.6,10.6,0,0,1,6.5,5,11,11,0,0,1,1.4,6.1L109.85,25A10.73,10.73,0,0,1,119.45,19Z"/><path class="cls-2" d="M132.25,127.3l-10.2-28.1a8.69,8.69,0,0,1-.3-4.8l-4-.7a12.13,12.13,0,0,0,.5,6.8l10.2,28.1a9.29,9.29,0,0,1,.5,2.9V155a5.91,5.91,0,0,1-5.9,5.9h0a5.91,5.91,0,0,1-5.9-5.9V134.3a12.6,12.6,0,0,0-.8-4.3l-9.9-27.3a4.19,4.19,0,0,0-8.1,1.5v22.3a7.46,7.46,0,0,1-.4,2.6l-8.8,27.7a6.07,6.07,0,0,1-7.5,3.9,6.26,6.26,0,0,1-3.5-2.9,5.88,5.88,0,0,1-.4-4.5l8.1-25.4a12.09,12.09,0,0,0,.6-3.8V98.8a34.73,34.73,0,0,1,1.3-9.6l.2-.6-4-.7-.1.2a43,43,0,0,0-1.4,10.7v25.3a7.46,7.46,0,0,1-.4,2.6l-8,25.3a10.05,10.05,0,0,0,.6,7.6,9.71,9.71,0,0,0,5.8,4.9,10.47,10.47,0,0,0,3,.5,10.06,10.06,0,0,0,9.5-6.9l8.8-27.7a12.09,12.09,0,0,0,.6-3.8V104.3c0-.2.3-.2.3-.1l9.9,27.3a9.29,9.29,0,0,1,.5,2.9v20.7A9.92,9.92,0,0,0,123,165h0a9.92,9.92,0,0,0,9.9-9.9V131.6A10.45,10.45,0,0,0,132.25,127.3Z"/><path class="cls-2" d="M150.15,88.5l-13-8.9a3.15,3.15,0,0,1-1.4-2.3l-2-16.9a12.62,12.62,0,0,0-9.2-10.7l-22.2-6a12.73,12.73,0,0,0-8.8.8L71.75,55A7,7,0,0,0,68,59.6l-4.8,17.5-18.5-3.2L44,77.8,62.65,81a5.84,5.84,0,0,0,.8,2.2,6.24,6.24,0,0,0,11.1-.6l.1-.2c.1-.2.1-.4.2-.6h0L79,66.6a3.26,3.26,0,0,1,1.7-2.1l11.1-5.4-5.2,19.1,4,.7,6.3-23h0l.3-1,.9-3.3h0l1.2-4.4a6.93,6.93,0,0,1,2,.3l2.5.7-3.5,13,20.1,5.4,3.5-13a8.4,8.4,0,0,1,4.1,2.9l-4.6,16.9-2.9,10.7,1.5.3,2.5.4a6.4,6.4,0,0,0,2.5,2.9l1.2.8-11.4-2.1h0L83,80.5l-1.3-.2-3.1-.5-.8,2.8a3,3,0,0,1-.4,1l3.2.5,1.3.2L117,90.4l19.1,3.6,7,4.8a6.37,6.37,0,0,0,8.7-1.6,6.46,6.46,0,0,0,1-4.7A6.19,6.19,0,0,0,150.15,88.5ZM93.25,54,79,61a7,7,0,0,0-3.8,4.6l-4.1,15.2a2.25,2.25,0,0,1-2.7,1.6,2.43,2.43,0,0,1-1.4-1,2,2,0,0,1-.2-1.7L72,60.8a3.26,3.26,0,0,1,1.7-2.1l21.2-10.4Zm24.2,7.7L105,58.3l2.5-9.1L120,52.6Zm31,33.2a2.25,2.25,0,0,1-3.1.6l-16.2-11.1a3.34,3.34,0,0,1-1.4-2.4l-.8-6.7,3.1-11.5,1.6,13.8a7.31,7.31,0,0,0,3.1,5.2l13,8.9a1.94,1.94,0,0,1,.9,1.4A2.2,2.2,0,0,1,148.45,94.9Z"/></g></g></svg>