<svg xmlns="http://www.w3.org/2000/svg" xmlns:xlink="http://www.w3.org/1999/xlink" viewBox="0 0 352.55 47.15"><defs><style>.cls-1{fill:none;}.cls-2{clip-path:url(#clip-path);}.cls-3,.cls-4{fill:#292929;}.cls-3{fill-rule:evenodd;}.cls-5{clip-path:url(#clip-path-2);}.cls-6{clip-path:url(#clip-path-3);}.cls-7{clip-path:url(#clip-path-4);}</style><clipPath id="clip-path"><rect class="cls-1" x="12.14" y="0.53" width="17.81" height="16.14"/></clipPath><clipPath id="clip-path-2"><rect class="cls-1" x="109.18" y="0.71" width="16.14" height="16.14"/></clipPath><clipPath id="clip-path-3"><rect class="cls-1" x="204.81" y="3.36" width="16.69" height="10.57"/></clipPath><clipPath id="clip-path-4"><rect class="cls-1" x="302.56" width="13.35" height="17.25"/></clipPath></defs><g id="Layer_2" data-name="Layer 2"><g id="Layer_1-2" data-name="Layer 1"><g class="cls-2"><polygon class="cls-3" points="22.68 16.65 27.63 16.65 27.63 6.57 14.45 6.57 14.45 16.65 19.39 16.65 19.39 11.26 22.68 11.26 22.68 16.65"/><polygon class="cls-3" points="21.04 0.88 29.61 6.91 12.46 6.91 21.04 0.88"/><path class="cls-4" d="M27.63,6.7H13.53L21,1.4l7.51,5.3Zm-.71,9.42H23.36V11.26a.61.61,0,0,0-.66-.58H19.38a.62.62,0,0,0-.67.58v4.86H15.16V7.42H26.92ZM29.76,6.6l-8.54-6a.33.33,0,0,0-.38,0L12.28,6.64a.45.45,0,0,0-.12.47c0,.13.16.31.3.31h2v9.25h5V11.41h3.2v5.26h5V7.42h2c.18,0,.33-.24.33-.42A.47.47,0,0,0,29.76,6.6Z"/></g><g class="cls-5"><path class="cls-4" d="M125.32,15.12l-3.64-3.68a2.91,2.91,0,0,0-1.54,2.21,8.48,8.48,0,0,1-5.32-2.34A8.61,8.61,0,0,1,112.51,6a2.85,2.85,0,0,0,2.18-1.55L111.05.71a2.59,2.59,0,0,0-1.61,2,12.83,12.83,0,0,0,3.43,10.4l.1.1.1.1a12.57,12.57,0,0,0,10.3,3.47A2.61,2.61,0,0,0,125.32,15.12Z"/></g><g class="cls-6"><path class="cls-4" d="M213.3,10.68a.2.2,0,0,1-.14.06.2.2,0,0,1-.15-.06l-1.78-1.5-6,4.76h15.93l-6-4.76Zm2.14-1.82,6.06,4.78v-10Zm5.7-5.5h-16l8,6.83Zm-16.33.31v10l6.06-4.78Z"/></g><g class="cls-7"><path class="cls-3" d="M309.24,16.94c2,0,6.36-7.07,6.36-10.47a6.36,6.36,0,0,0-12.71,0C302.89,9.87,307.27,16.94,309.24,16.94Zm0-8a3.14,3.14,0,0,0,3.19-3.08,3.19,3.19,0,0,0-6.38,0A3.14,3.14,0,0,0,309.24,8.93Z"/><path class="cls-4" d="M309.24,4.31a1.54,1.54,0,1,0,0,3.07,1.57,1.57,0,0,0,1.59-1.53A1.57,1.57,0,0,0,309.24,4.31Zm0,3.69A2.18,2.18,0,0,1,307,5.85a2.23,2.23,0,0,1,4.45,0A2.19,2.19,0,0,1,309.24,8Zm0-4.91a2.82,2.82,0,0,0-2.86,2.77,2.87,2.87,0,0,0,5.73,0A2.82,2.82,0,0,0,309.24,3.09Zm0,6.16a3.45,3.45,0,0,1-3.49-3.39,3.49,3.49,0,0,1,7,0A3.45,3.45,0,0,1,309.24,9.25Zm0-8.63a5.94,5.94,0,0,0-6,5.85c0,3.38,4.32,10.16,6,10.16s6-6.78,6-10.16A6,6,0,0,0,309.24.62Zm0,16.63c-2.19,0-6.68-7.26-6.68-10.78a6.68,6.68,0,0,1,13.36,0C315.92,10,311.43,17.25,309.24,17.25Z"/></g><path class="cls-4" d="M4.56,33.15H5L3.56,36.47H3.21l-.72-1.7-.71,1.7H1.43L0,33.15H.42L1.63,36l.63-1.51L1.7,33.15h.36l.43,1.09.44-1.09h.36l-.56,1.36L3.36,36Z"/><path class="cls-4" d="M9.74,33.15h.43L8.74,36.47H8.39l-.72-1.7L7,36.47H6.61L5.18,33.15H5.6L6.81,36l.63-1.51-.56-1.36h.36l.43,1.09.44-1.09h.37l-.57,1.36L8.54,36Z"/><path class="cls-4" d="M14.93,33.15h.42l-1.43,3.32h-.35l-.72-1.7-.7,1.7h-.36l-1.43-3.32h.42L12,36l.63-1.51-.56-1.36h.36l.43,1.09.44-1.09h.37l-.57,1.36L13.72,36Z"/><path class="cls-4" d="M15.56,36.47v-.63h.37v.63Z"/><path class="cls-4" d="M19.2,36.47,18,34.77l-.71.66v1h-.43V31.82h.43V35l1.87-1.83h.49l-1.36,1.36,1.41,2Z"/><path class="cls-4" d="M21,36.53a1,1,0,0,1-.43-.08.91.91,0,0,1-.35-.22A1,1,0,0,1,20,35.9a1.06,1.06,0,0,1-.08-.4.79.79,0,0,1,.1-.4,1.1,1.1,0,0,1,.29-.32,1.38,1.38,0,0,1,.44-.21,2,2,0,0,1,.56-.07,3.12,3.12,0,0,1,.52,0,2.53,2.53,0,0,1,.46.13v-.3a1,1,0,0,0-.25-.7.9.9,0,0,0-.69-.25,1.41,1.41,0,0,0-.52.1,2.38,2.38,0,0,0-.54.29l-.15-.29a2.3,2.3,0,0,1,1.25-.43,1.37,1.37,0,0,1,1,.35,1.28,1.28,0,0,1,.35,1v1.5c0,.12.06.18.16.18v.38l-.16,0a.4.4,0,0,1-.26-.08.37.37,0,0,1-.1-.23v-.27a1.45,1.45,0,0,1-.58.46A1.71,1.71,0,0,1,21,36.53Zm.11-.33a1.44,1.44,0,0,0,.62-.13,1,1,0,0,0,.43-.33.35.35,0,0,0,.08-.13.27.27,0,0,0,0-.12V35a2.13,2.13,0,0,0-.45-.13,2.42,2.42,0,0,0-.47,0,1.39,1.39,0,0,0-.75.19.6.6,0,0,0-.29.51.53.53,0,0,0,.07.28.78.78,0,0,0,.16.24.79.79,0,0,0,.25.15A.83.83,0,0,0,21.1,36.2Z"/><path class="cls-4" d="M25.29,33.53a1.43,1.43,0,0,0-.77.24,1.33,1.33,0,0,0-.46.63v2.07h-.43V33.15H24V34a1.42,1.42,0,0,1,.5-.6,1.1,1.1,0,0,1,.67-.22h.08Z"/><path class="cls-4" d="M25.59,36.18l2.24-2.71H25.64v-.32H28.3v.29l-2.23,2.7H28.3v.33H25.59Z"/><path class="cls-4" d="M29.84,36.53a1.08,1.08,0,0,1-.44-.08,1,1,0,0,1-.35-.22.86.86,0,0,1-.23-.33.9.9,0,0,1-.08-.4.79.79,0,0,1,.1-.4,1,1,0,0,1,.29-.32,1.33,1.33,0,0,1,.43-.21,2,2,0,0,1,.57-.07,2.92,2.92,0,0,1,.51,0,2.65,2.65,0,0,1,.47.13v-.3a1,1,0,0,0-.25-.7.93.93,0,0,0-.69-.25,1.41,1.41,0,0,0-.52.1,2.38,2.38,0,0,0-.54.29L29,33.52a2.32,2.32,0,0,1,1.25-.43,1.33,1.33,0,0,1,1,.35,1.29,1.29,0,0,1,.36,1v1.5c0,.12.05.18.16.18v.38l-.17,0a.37.37,0,0,1-.25-.08.29.29,0,0,1-.1-.23l0-.27a1.42,1.42,0,0,1-.57.46A1.71,1.71,0,0,1,29.84,36.53Zm.1-.33a1.41,1.41,0,0,0,.62-.13,1,1,0,0,0,.43-.33.38.38,0,0,0,.09-.13.27.27,0,0,0,0-.12V35a2.54,2.54,0,0,0-.45-.13,2.61,2.61,0,0,0-.48,0,1.37,1.37,0,0,0-.74.19.6.6,0,0,0-.29.51.64.64,0,0,0,.06.28.81.81,0,0,0,.17.24.7.7,0,0,0,.25.15A.81.81,0,0,0,29.94,36.2Z"/><path class="cls-4" d="M32.41,36.47v-.63h.38v.63Z"/><path class="cls-4" d="M33.68,32.45v-.63h.43v.63Zm0,4V33.15h.43v3.32Z"/><path class="cls-4" d="M37.86,36.47h-.43V34.61a1.6,1.6,0,0,0-.18-.86.59.59,0,0,0-.53-.26,1.07,1.07,0,0,0-.39.07,1.33,1.33,0,0,0-.35.19,1.42,1.42,0,0,0-.29.31,1,1,0,0,0-.19.38v2h-.43V33.15h.4v.75a1.56,1.56,0,0,1,.58-.59,1.69,1.69,0,0,1,.83-.22,1,1,0,0,1,.46.1.86.86,0,0,1,.31.29,1.32,1.32,0,0,1,.16.45,2.8,2.8,0,0,1,0,.6Z"/><path class="cls-4" d="M93.92,34v.35h-.79v.87h-.4v-.87h-.79V34h.79v-.86h.4V34Z"/><path class="cls-4" d="M94.48,34.38a1.5,1.5,0,0,1,.12-.6,1.61,1.61,0,0,1,.35-.5,1.5,1.5,0,0,1,.51-.33,1.61,1.61,0,0,1,.63-.12,1.57,1.57,0,0,1,.65.13,1.59,1.59,0,0,1,.52.37,1.82,1.82,0,0,1,.33.6,2.47,2.47,0,0,1,.12.79,5.29,5.29,0,0,1-.12,1.2,2.62,2.62,0,0,1-.34.86,1.48,1.48,0,0,1-.53.5,1.43,1.43,0,0,1-.68.17,1.46,1.46,0,0,1-.8-.22,1.44,1.44,0,0,1-.55-.62l.28-.26a1.13,1.13,0,0,0,.42.52,1.16,1.16,0,0,0,.65.2,1,1,0,0,0,.51-.14,1.2,1.2,0,0,0,.4-.38,2.06,2.06,0,0,0,.25-.62,4,4,0,0,0,.1-.84,1.25,1.25,0,0,1-.49.6,1.38,1.38,0,0,1-.77.22,1.74,1.74,0,0,1-.61-.11,1.56,1.56,0,0,1-.5-.33A1.51,1.51,0,0,1,94.6,35,1.46,1.46,0,0,1,94.48,34.38Zm1.6-1.17a1.22,1.22,0,0,0-.46.09,1.37,1.37,0,0,0-.37.26,1.08,1.08,0,0,0-.26.37,1.09,1.09,0,0,0,0,.91,1.08,1.08,0,0,0,.26.37,1.15,1.15,0,0,0,.37.25,1.17,1.17,0,0,0,1.29-.25,1.23,1.23,0,0,0,.26-.37,1.14,1.14,0,0,0,.09-.46,1.12,1.12,0,0,0-.09-.44,1.28,1.28,0,0,0-.26-.38,1.37,1.37,0,0,0-.37-.26A1.22,1.22,0,0,0,96.08,33.21Z"/><path class="cls-4" d="M100.57,36.07v.4H98.41v-.4h.91V33.35a1,1,0,0,1-.18.16,1.78,1.78,0,0,1-.27.17,2,2,0,0,1-.31.12.83.83,0,0,1-.28.06v-.42a.71.71,0,0,0,.32-.09,1.77,1.77,0,0,0,.33-.19c.11-.07.19-.14.27-.2l.12-.13h.44v3.24Z"/><path class="cls-4" d="M102.57,34.38a1.5,1.5,0,0,1,.12-.6,1.58,1.58,0,0,1,.34-.5,1.72,1.72,0,0,1,.51-.33,1.68,1.68,0,0,1,.63-.12,1.59,1.59,0,0,1,.66.13,1.46,1.46,0,0,1,.51.37,1.68,1.68,0,0,1,.34.6,2.47,2.47,0,0,1,.12.79,5.29,5.29,0,0,1-.12,1.2,2.86,2.86,0,0,1-.34.86,1.57,1.57,0,0,1-.53.5,1.43,1.43,0,0,1-.68.17,1.49,1.49,0,0,1-.81-.22,1.42,1.42,0,0,1-.54-.62l.28-.26a1.13,1.13,0,0,0,.42.52,1.16,1.16,0,0,0,.65.2,1,1,0,0,0,.51-.14,1.17,1.17,0,0,0,.39-.38,2.07,2.07,0,0,0,.26-.62,3.49,3.49,0,0,0,.09-.84,1.23,1.23,0,0,1-.48.6,1.39,1.39,0,0,1-.78.22,1.78,1.78,0,0,1-.61-.11,1.54,1.54,0,0,1-.82-.82A1.46,1.46,0,0,1,102.57,34.38Zm1.6-1.17a1.18,1.18,0,0,0-.46.09,1.23,1.23,0,0,0-.37.26,1.08,1.08,0,0,0-.26.37,1,1,0,0,0-.1.45,1,1,0,0,0,.1.46,1.08,1.08,0,0,0,.26.37,1.05,1.05,0,0,0,.37.25,1,1,0,0,0,.46.1,1.19,1.19,0,0,0,1.08-.72,1.15,1.15,0,0,0,.1-.46,1.13,1.13,0,0,0-.1-.44,1.09,1.09,0,0,0-.25-.38,1.28,1.28,0,0,0-.38-.26A1.13,1.13,0,0,0,104.17,33.21Z"/><path class="cls-4" d="M109.53,35.21a1.19,1.19,0,0,1-.12.54,1.25,1.25,0,0,1-.35.41,1.38,1.38,0,0,1-.51.27,2,2,0,0,1-.6.09,2.08,2.08,0,0,1-.63-.1,1.81,1.81,0,0,1-.49-.29,1.31,1.31,0,0,1-.44-.94,1,1,0,0,1,.08-.4.93.93,0,0,1,.21-.33,1.16,1.16,0,0,1,.29-.25,1.25,1.25,0,0,1,.33-.16,2,2,0,0,1-.29-.16,1,1,0,0,1-.4-.48.81.81,0,0,1-.06-.31.93.93,0,0,1,.13-.5,1.13,1.13,0,0,1,.33-.36,1.57,1.57,0,0,1,.45-.22,1.74,1.74,0,0,1,.5-.08,1.81,1.81,0,0,1,.51.08,1.35,1.35,0,0,1,.45.22,1.13,1.13,0,0,1,.33.36.92.92,0,0,1,.13.49.78.78,0,0,1-.06.31,1,1,0,0,1-.17.27,1,1,0,0,1-.24.22,2.69,2.69,0,0,1-.29.16,1.62,1.62,0,0,1,.35.17,1.45,1.45,0,0,1,.29.26,1.38,1.38,0,0,1,.2.33A1.05,1.05,0,0,1,109.53,35.21Zm-.44,0a.74.74,0,0,0-.1-.4,1,1,0,0,0-.27-.3,1.16,1.16,0,0,0-.37-.18,1.12,1.12,0,0,0-.4-.07,1.18,1.18,0,0,0-.41.07,1.08,1.08,0,0,0-.35.19.94.94,0,0,0-.26.3.87.87,0,0,0-.09.4.77.77,0,0,0,.1.4,1.2,1.2,0,0,0,.26.29,1.43,1.43,0,0,0,.37.19,1.39,1.39,0,0,0,.4.06,1.18,1.18,0,0,0,.41-.07,1,1,0,0,0,.36-.19.91.91,0,0,0,.25-.3A.71.71,0,0,0,109.09,35.18ZM107,33.12a.57.57,0,0,0,.09.32.92.92,0,0,0,.23.25,1.57,1.57,0,0,0,.32.15,1.18,1.18,0,0,0,.68,0,1.2,1.2,0,0,0,.32-.16.88.88,0,0,0,.23-.24.64.64,0,0,0,.09-.34.69.69,0,0,0-.08-.32,1,1,0,0,0-.22-.24.86.86,0,0,0-.32-.15,1.36,1.36,0,0,0-.73,0,1.14,1.14,0,0,0-.31.16.61.61,0,0,0-.21.24A.63.63,0,0,0,107,33.12Z"/><path class="cls-4" d="M112.44,36.07v.4h-2.16v-.4h.9V33.35a.67.67,0,0,1-.17.16,2,2,0,0,1-.58.29.83.83,0,0,1-.29.06v-.42a.75.75,0,0,0,.33-.09,2.79,2.79,0,0,0,.33-.19l.26-.2.12-.13h.45v3.24Z"/><path class="cls-4" d="M114.43,34.38a1.5,1.5,0,0,1,.13-.6,1.43,1.43,0,0,1,.34-.5,1.5,1.5,0,0,1,.51-.33,1.61,1.61,0,0,1,.63-.12,1.59,1.59,0,0,1,.66.13,1.46,1.46,0,0,1,.51.37,1.82,1.82,0,0,1,.33.6,2.47,2.47,0,0,1,.12.79,5.29,5.29,0,0,1-.12,1.2,2.62,2.62,0,0,1-.34.86,1.41,1.41,0,0,1-.53.5,1.39,1.39,0,0,1-.67.17,1.46,1.46,0,0,1-1.36-.84l.28-.26a1.09,1.09,0,0,0,.43.52,1.14,1.14,0,0,0,.65.2,1,1,0,0,0,.5-.14,1.11,1.11,0,0,0,.4-.38,1.83,1.83,0,0,0,.25-.62,3.45,3.45,0,0,0,.1-.84,1.25,1.25,0,0,1-.49.6,1.34,1.34,0,0,1-.77.22,1.74,1.74,0,0,1-.61-.11,1.51,1.51,0,0,1-.49-.33,1.72,1.72,0,0,1-.34-.49A1.46,1.46,0,0,1,114.43,34.38Zm1.6-1.17a1.13,1.13,0,0,0-.45.09,1.42,1.42,0,0,0-.38.26,1.23,1.23,0,0,0-.26.37,1.13,1.13,0,0,0-.09.45,1.14,1.14,0,0,0,.09.46,1.23,1.23,0,0,0,.26.37,1.19,1.19,0,0,0,.38.25,1,1,0,0,0,.45.1,1,1,0,0,0,.46-.1,1.09,1.09,0,0,0,.38-.25,1.21,1.21,0,0,0,.25-.37,1.14,1.14,0,0,0,.09-.46,1.15,1.15,0,0,0-.35-.82,1.23,1.23,0,0,0-.37-.26A1.18,1.18,0,0,0,116,33.21Z"/><path class="cls-4" d="M121.4,35.21a1.08,1.08,0,0,1-.13.54,1.23,1.23,0,0,1-.34.41,1.56,1.56,0,0,1-.51.27,2,2,0,0,1-1.23,0,1.88,1.88,0,0,1-.5-.29,1.38,1.38,0,0,1-.32-.43,1.26,1.26,0,0,1-.11-.51.87.87,0,0,1,.08-.4,1.08,1.08,0,0,1,.2-.33,1.68,1.68,0,0,1,.29-.25,1.25,1.25,0,0,1,.33-.16,1.87,1.87,0,0,1-.28-.16,1.21,1.21,0,0,1-.24-.21.92.92,0,0,1-.16-.27.81.81,0,0,1-.06-.31,1,1,0,0,1,.12-.5,1.42,1.42,0,0,1,.33-.36,1.78,1.78,0,0,1,.46-.22,1.69,1.69,0,0,1,.5-.08,1.81,1.81,0,0,1,.51.08,1.35,1.35,0,0,1,.45.22,1.42,1.42,0,0,1,.33.36,1,1,0,0,1,.13.49.78.78,0,0,1-.06.31,1,1,0,0,1-.17.27,1,1,0,0,1-.24.22,2.69,2.69,0,0,1-.29.16,1.62,1.62,0,0,1,.35.17,1.45,1.45,0,0,1,.29.26,1.38,1.38,0,0,1,.2.33A1.05,1.05,0,0,1,121.4,35.21Zm-.44,0a.74.74,0,0,0-.1-.4,1,1,0,0,0-.27-.3,1.47,1.47,0,0,0-.77-.25,1.14,1.14,0,0,0-.41.07,1.24,1.24,0,0,0-.36.19.91.91,0,0,0-.25.3.88.88,0,0,0-.1.4.77.77,0,0,0,.11.4.89.89,0,0,0,.26.29,1.55,1.55,0,0,0,.36.19,1.45,1.45,0,0,0,.41.06,1.12,1.12,0,0,0,.4-.07.89.89,0,0,0,.36-.19.94.94,0,0,0,.26-.3A.71.71,0,0,0,121,35.18Zm-2.11-2.06a.57.57,0,0,0,.09.32.92.92,0,0,0,.23.25,1.48,1.48,0,0,0,.31.15,1.22,1.22,0,0,0,.69,0,1.14,1.14,0,0,0,.31-.16.78.78,0,0,0,.24-.24.64.64,0,0,0,.09-.34.59.59,0,0,0-.09-.32.71.71,0,0,0-.22-.24.81.81,0,0,0-.31-.15,1.36,1.36,0,0,0-.73,0,1,1,0,0,0-.31.16.67.67,0,0,0-.3.57Z"/><path class="cls-4" d="M125.27,34.6a2.45,2.45,0,0,1-.12.78,2,2,0,0,1-.34.61,1.61,1.61,0,0,1-.5.4,1.53,1.53,0,0,1-1.28,0,1.77,1.77,0,0,1-.51-.4,2,2,0,0,1-.33-.61,2.45,2.45,0,0,1-.12-.78,2.35,2.35,0,0,1,.12-.77,2,2,0,0,1,.33-.62,1.77,1.77,0,0,1,.51-.4,1.44,1.44,0,0,1,1.28,0,1.61,1.61,0,0,1,.5.4,2.06,2.06,0,0,1,.34.62A2.35,2.35,0,0,1,125.27,34.6Zm-.44,0a2,2,0,0,0-.09-.62,1.21,1.21,0,0,0-.24-.48,1.1,1.1,0,0,0-.36-.32,1.08,1.08,0,0,0-1,0,1.1,1.1,0,0,0-.36.32,1.54,1.54,0,0,0-.24.48,2,2,0,0,0-.09.62,2.08,2.08,0,0,0,.09.63,1.8,1.8,0,0,0,.24.48,1.19,1.19,0,0,0,.36.31,1.09,1.09,0,0,0,.48.1,1.07,1.07,0,0,0,.47-.1,1.19,1.19,0,0,0,.36-.31,1.35,1.35,0,0,0,.24-.48A2.08,2.08,0,0,0,124.83,34.6Z"/><path class="cls-4" d="M127.52,36.47a3.27,3.27,0,0,1,0-.44,1.84,1.84,0,0,1,.15-.43,1.56,1.56,0,0,1,.32-.42,2.21,2.21,0,0,1,.55-.38l.39-.19a2.71,2.71,0,0,0,.37-.21,1.09,1.09,0,0,0,.27-.25.51.51,0,0,0,.11-.34.69.69,0,0,0-.05-.24.65.65,0,0,0-.16-.21.93.93,0,0,0-.26-.15,1.17,1.17,0,0,0-.74,0,1.57,1.57,0,0,0-.29.15,1,1,0,0,0-.22.17l-.13.15-.29-.31.15-.14A1.35,1.35,0,0,1,128,33a2.2,2.2,0,0,1,.41-.18,1.51,1.51,0,0,1,.53-.08,1.39,1.39,0,0,1,.52.08.93.93,0,0,1,.39.22,1,1,0,0,1,.33.7.84.84,0,0,1-.12.45,1.12,1.12,0,0,1-.28.33,2.25,2.25,0,0,1-.36.24l-.34.17a3,3,0,0,0-.4.2,2.38,2.38,0,0,0-.35.24,1.18,1.18,0,0,0-.25.3.69.69,0,0,0-.1.37h2.27v.4Z"/><path class="cls-4" d="M133.15,36.07v.4H131v-.4h.91V33.35a1,1,0,0,1-.18.16,1.78,1.78,0,0,1-.27.17,2,2,0,0,1-.31.12.83.83,0,0,1-.28.06v-.42a.74.74,0,0,0,.32-.09,1.77,1.77,0,0,0,.33-.19l.26-.2.13-.13h.44v3.24Z"/><path class="cls-4" d="M135.82,33.15h-2.44v-.4h3.13l-2.29,4.53h-.5Z"/><path class="cls-4" d="M139.23,33.15h-2.44v-.4h3.13l-2.29,4.53h-.5Z"/><path class="cls-4" d="M193.92,32.45v-.63h.43v.63Zm0,4V33.15h.43v3.32Z"/><path class="cls-4" d="M198.1,36.47h-.43V34.61a1.6,1.6,0,0,0-.18-.86.62.62,0,0,0-.54-.26,1,1,0,0,0-.38.07,1.08,1.08,0,0,0-.35.19,1.42,1.42,0,0,0-.29.31,1,1,0,0,0-.19.38v2h-.43V33.15h.39v.75a1.59,1.59,0,0,1,.59-.59,1.65,1.65,0,0,1,.82-.22,1,1,0,0,1,.47.1.83.83,0,0,1,.3.29,1.32,1.32,0,0,1,.17.45,3.64,3.64,0,0,1,0,.6Z"/><path class="cls-4" d="M199.15,36.47v-3h-.46v-.34h.46v-.09a1.52,1.52,0,0,1,.26-1,.84.84,0,0,1,.71-.35,1.21,1.21,0,0,1,.38.06,1.19,1.19,0,0,1,.32.15l-.13.32a.51.51,0,0,0-.22-.11.82.82,0,0,0-.26,0,.54.54,0,0,0-.47.23,1.21,1.21,0,0,0-.16.69v.1h.92v.34h-.92v3Z"/><path class="cls-4" d="M202.34,36.53a1.59,1.59,0,0,1-.66-.13,1.66,1.66,0,0,1-.52-.38,1.55,1.55,0,0,1-.34-.55,1.72,1.72,0,0,1,0-1.31,1.7,1.7,0,0,1,.34-.55,1.62,1.62,0,0,1,.52-.38,1.63,1.63,0,0,1,1.32,0,1.62,1.62,0,0,1,.52.38,1.73,1.73,0,0,1,.35.55,1.85,1.85,0,0,1,0,1.31,1.65,1.65,0,0,1-.87.93A1.59,1.59,0,0,1,202.34,36.53Zm-1.21-1.71a1.46,1.46,0,0,0,.1.52,1.29,1.29,0,0,0,.26.42,1.09,1.09,0,0,0,.85.39,1,1,0,0,0,.47-.11,1.29,1.29,0,0,0,.38-.28,1.24,1.24,0,0,0,.26-.43,1.27,1.27,0,0,0,.1-.52,1.34,1.34,0,0,0-.1-.52,1.29,1.29,0,0,0-.26-.42,1.17,1.17,0,0,0-.38-.29,1.12,1.12,0,0,0-.47-.11,1.08,1.08,0,0,0-.47.11,1.33,1.33,0,0,0-.38.29,1.24,1.24,0,0,0-.26.43A1.5,1.5,0,0,0,201.13,34.82Z"/><path class="cls-4" d="M206.9,32.63a2.24,2.24,0,0,1,.89.17,2.3,2.3,0,0,1,.74.5,2.28,2.28,0,0,1,.5.77,2.55,2.55,0,0,1,.19,1c0,.06,0,.14,0,.24a1.92,1.92,0,0,1-.05.32,2.46,2.46,0,0,1-.09.34,1.14,1.14,0,0,1-.16.31.7.7,0,0,1-.26.22.69.69,0,0,1-.36.09.6.6,0,0,1-.26,0,.34.34,0,0,1-.16-.13.54.54,0,0,1-.08-.19,1.43,1.43,0,0,1,0-.22,1.45,1.45,0,0,1-.46.32,1.41,1.41,0,0,1-.62.14,1,1,0,0,1-.7-.24.81.81,0,0,1-.25-.62.7.7,0,0,1,.38-.67,1.07,1.07,0,0,1,.38-.14,2,2,0,0,1,.42,0,2.38,2.38,0,0,1,.49.05l.32.09a2.48,2.48,0,0,0,0-.41.76.76,0,0,0-.12-.32.58.58,0,0,0-.25-.21.74.74,0,0,0-.38-.08,1.51,1.51,0,0,0-.48.08,1.53,1.53,0,0,0-.42.22l-.11-.25a2,2,0,0,1,.49-.24,1.63,1.63,0,0,1,.55-.09,1.11,1.11,0,0,1,.56.12.93.93,0,0,1,.32.3,1.21,1.21,0,0,1,.13.42,3.67,3.67,0,0,1,0,.46v.83c0,.09,0,.18,0,.26a.65.65,0,0,0,.05.2.31.31,0,0,0,.1.13.29.29,0,0,0,.17,0,.43.43,0,0,0,.33-.13,1,1,0,0,0,.2-.34,1.85,1.85,0,0,0,.11-.42,3,3,0,0,0,0-.4,2.48,2.48,0,0,0-.16-.86,2.21,2.21,0,0,0-.45-.7,2.4,2.4,0,0,0-.66-.47,2.09,2.09,0,0,0-.83-.17,2.26,2.26,0,0,0-.82.16,2.08,2.08,0,0,0-.67.45,2.19,2.19,0,0,0-.63,1.55,2.32,2.32,0,0,0,.59,1.55A2,2,0,0,0,206,37a2.14,2.14,0,0,0,1.34.11,2.07,2.07,0,0,0,.47-.18l.09.2a3.16,3.16,0,0,1-.53.2,2.48,2.48,0,0,1-.54.06,2.26,2.26,0,0,1-.9-.18A2.33,2.33,0,0,1,204.72,36a2.49,2.49,0,0,1-.18-1,2.41,2.41,0,0,1,.19-1,2.35,2.35,0,0,1,.52-.74,2.54,2.54,0,0,1,.76-.49A2.42,2.42,0,0,1,206.9,32.63Zm.38,3.39a.63.63,0,0,0,.35-.3,1,1,0,0,0,.07-.35v-.25l-.3-.08a1.9,1.9,0,0,0-.52-.06,1.66,1.66,0,0,0-.32,0,1,1,0,0,0-.28.09.61.61,0,0,0-.2.19.49.49,0,0,0-.07.28.53.53,0,0,0,.19.43.72.72,0,0,0,.49.16,1.17,1.17,0,0,0,.32,0A1.69,1.69,0,0,0,207.28,36Z"/><path class="cls-4" d="M212.42,36.47l-1.22-1.7-.72.66v1h-.43V31.82h.43V35l1.87-1.83h.49l-1.36,1.36,1.41,2Z"/><path class="cls-4" d="M214.22,36.53a1,1,0,0,1-.44-.08,1,1,0,0,1-.35-.22.86.86,0,0,1-.23-.33.9.9,0,0,1-.09-.4.8.8,0,0,1,.11-.4.94.94,0,0,1,.28-.32,1.49,1.49,0,0,1,.44-.21,2,2,0,0,1,.56-.07,3.12,3.12,0,0,1,.52,0,2.53,2.53,0,0,1,.46.13v-.3a1,1,0,0,0-.24-.7.93.93,0,0,0-.69-.25,1.46,1.46,0,0,0-.53.1,2.88,2.88,0,0,0-.54.29l-.15-.29a2.32,2.32,0,0,1,1.25-.43,1.35,1.35,0,0,1,1,.35,1.29,1.29,0,0,1,.36,1v1.5c0,.12.05.18.16.18v.38l-.17,0a.4.4,0,0,1-.26-.08.37.37,0,0,1-.1-.23v-.27a1.39,1.39,0,0,1-.58.46A1.7,1.7,0,0,1,214.22,36.53Zm.1-.33a1.44,1.44,0,0,0,.62-.13,1,1,0,0,0,.43-.33.38.38,0,0,0,.09-.13.25.25,0,0,0,0-.12V35a2.23,2.23,0,0,0-.44-.13,2.61,2.61,0,0,0-.48,0,1.41,1.41,0,0,0-.75.19.59.59,0,0,0-.28.51.64.64,0,0,0,.06.28.78.78,0,0,0,.16.24.74.74,0,0,0,.26.15A.78.78,0,0,0,214.32,36.2Z"/><path class="cls-4" d="M218.51,33.53a1.37,1.37,0,0,0-.76.24,1.27,1.27,0,0,0-.46.63v2.07h-.44V33.15h.41V34a1.49,1.49,0,0,1,.5-.6,1.12,1.12,0,0,1,.67-.22h.08Z"/><path class="cls-4" d="M218.81,36.18l2.24-2.71h-2.19v-.32h2.67v.29l-2.24,2.7h2.23v.33h-2.71Z"/><path class="cls-4" d="M223.06,36.53a1,1,0,0,1-.43-.08,1,1,0,0,1-.36-.22,1,1,0,0,1-.23-.33,1.06,1.06,0,0,1-.08-.4.79.79,0,0,1,.1-.4,1,1,0,0,1,.29-.32,1.38,1.38,0,0,1,.44-.21,2,2,0,0,1,.56-.07,2.92,2.92,0,0,1,.51,0,2.65,2.65,0,0,1,.47.13v-.3a1,1,0,0,0-.25-.7.9.9,0,0,0-.69-.25,1.41,1.41,0,0,0-.52.1,2.38,2.38,0,0,0-.54.29l-.15-.29a2.27,2.27,0,0,1,1.25-.43,1.37,1.37,0,0,1,1,.35,1.32,1.32,0,0,1,.35,1v1.5c0,.12.06.18.16.18v.38l-.16,0a.4.4,0,0,1-.26-.08.33.33,0,0,1-.1-.23v-.27a1.52,1.52,0,0,1-.58.46A1.71,1.71,0,0,1,223.06,36.53Zm.1-.33a1.45,1.45,0,0,0,.63-.13,1,1,0,0,0,.43-.33.57.57,0,0,0,.08-.13.27.27,0,0,0,0-.12V35a2.13,2.13,0,0,0-.45-.13,2.42,2.42,0,0,0-.47,0,1.39,1.39,0,0,0-.75.19.6.6,0,0,0-.29.51.64.64,0,0,0,.06.28.81.81,0,0,0,.17.24.7.7,0,0,0,.25.15A.81.81,0,0,0,223.16,36.2Z"/><path class="cls-4" d="M225.64,36.47v-.63H226v.63Z"/><path class="cls-4" d="M226.9,32.45v-.63h.44v.63Zm0,4V33.15h.44v3.32Z"/><path class="cls-4" d="M231.09,36.47h-.44V34.61a1.71,1.71,0,0,0-.17-.86.62.62,0,0,0-.54-.26,1,1,0,0,0-.38.07,1.24,1.24,0,0,0-.36.19,1.72,1.72,0,0,0-.29.31,1.21,1.21,0,0,0-.18.38v2h-.44V33.15h.4v.75a1.64,1.64,0,0,1,.58-.59,1.72,1.72,0,0,1,.83-.22.92.92,0,0,1,.46.1.86.86,0,0,1,.31.29,1.14,1.14,0,0,1,.16.45,2.77,2.77,0,0,1,.06.6Z"/><path class="cls-4" d="M263.94,34.17a2.32,2.32,0,0,1,.15-.81,2,2,0,0,1,.42-.72,2,2,0,0,1,1.58-.72,1.92,1.92,0,0,1,1,.27,1.63,1.63,0,0,1,.63.72l-.35.21a1.45,1.45,0,0,0-1-.76,1.55,1.55,0,0,0-.37,0,1.37,1.37,0,0,0-.72.17,1.6,1.6,0,0,0-.53.43,1.93,1.93,0,0,0-.32.6,2.25,2.25,0,0,0-.11.68,2,2,0,0,0,.13.72,2.18,2.18,0,0,0,.36.61,1.64,1.64,0,0,0,.53.42,1.55,1.55,0,0,0,.68.16,1.89,1.89,0,0,0,.39,0,1.61,1.61,0,0,0,.39-.16,1.4,1.4,0,0,0,.34-.26,1.19,1.19,0,0,0,.27-.38l.37.2a1.32,1.32,0,0,1-.3.44,2.3,2.3,0,0,1-.44.33,2.57,2.57,0,0,1-.52.21,2.49,2.49,0,0,1-.53.07,1.76,1.76,0,0,1-.85-.21,2,2,0,0,1-.67-.53,2.42,2.42,0,0,1-.44-.74A2.57,2.57,0,0,1,263.94,34.17Z"/><path class="cls-4" d="M269.94,36.53a1.59,1.59,0,0,1-.66-.13,1.79,1.79,0,0,1-.52-.38,1.55,1.55,0,0,1-.34-.55,1.85,1.85,0,0,1,0-1.31,1.57,1.57,0,0,1,.35-.55,1.57,1.57,0,0,1,1.17-.52,1.59,1.59,0,0,1,.66.14,1.52,1.52,0,0,1,.52.38,1.57,1.57,0,0,1,.35.55,1.85,1.85,0,0,1,0,1.31,1.55,1.55,0,0,1-.34.55,1.79,1.79,0,0,1-.52.38A1.63,1.63,0,0,1,269.94,36.53Zm-1.2-1.71a1.46,1.46,0,0,0,.09.52,1.49,1.49,0,0,0,.26.42,1.17,1.17,0,0,0,.38.29,1.1,1.1,0,0,0,.47.1,1,1,0,0,0,.47-.11,1.21,1.21,0,0,0,.39-.28,1.41,1.41,0,0,0,.26-.43,1.46,1.46,0,0,0,.09-.52,1.54,1.54,0,0,0-.09-.52,1.49,1.49,0,0,0-.26-.42,1.11,1.11,0,0,0-.39-.29,1.08,1.08,0,0,0-.47-.11,1,1,0,0,0-.46.11,1.24,1.24,0,0,0-.39.29,1.41,1.41,0,0,0-.26.43A1.5,1.5,0,0,0,268.74,34.82Z"/><path class="cls-4" d="M273.7,32h.42l.63,1.6.65-1.6h.43L275,33.91l.86,2,1.64-4H278l-1.91,4.53h-.4l-.95-2.24-.95,2.24h-.39l-1.92-4.53H272l1.65,4,.86-2Z"/><path class="cls-4" d="M280,33.53a1.37,1.37,0,0,0-.76.24,1.27,1.27,0,0,0-.46.63v2.07h-.43V33.15h.4V34a1.49,1.49,0,0,1,.5-.6,1.12,1.12,0,0,1,.67-.22H280Z"/><path class="cls-4" d="M282.94,36.47l-1.22-1.7-.71.66v1h-.44V31.82H281V35l1.86-1.83h.49L282,34.51l1.41,2Z"/><path class="cls-4" d="M285.05,36.53a2.46,2.46,0,0,1-.76-.12,2,2,0,0,1-.63-.37l.19-.3a2.09,2.09,0,0,0,.58.35,1.8,1.8,0,0,0,.62.11,1.13,1.13,0,0,0,.64-.16.52.52,0,0,0,.24-.46.45.45,0,0,0-.07-.24.52.52,0,0,0-.19-.16,1,1,0,0,0-.31-.12,3.34,3.34,0,0,0-.43-.11l-.5-.14a1.65,1.65,0,0,1-.35-.16.59.59,0,0,1-.2-.22.67.67,0,0,1-.07-.33.89.89,0,0,1,.1-.44.92.92,0,0,1,.27-.32,1.42,1.42,0,0,1,.39-.19,1.86,1.86,0,0,1,.48-.06,1.94,1.94,0,0,1,.7.12,1.55,1.55,0,0,1,.5.33l-.21.26a1.17,1.17,0,0,0-.45-.29,1.72,1.72,0,0,0-.87-.06.76.76,0,0,0-.26.11.55.55,0,0,0-.17.2.6.6,0,0,0-.07.27.45.45,0,0,0,0,.22.34.34,0,0,0,.15.14,1,1,0,0,0,.25.11l.38.1.56.15a2.75,2.75,0,0,1,.41.18.64.64,0,0,1,.24.25.69.69,0,0,1,.09.36.86.86,0,0,1-.35.72A1.53,1.53,0,0,1,285.05,36.53Z"/><path class="cls-4" d="M287.12,37l.11-.54h-.14v-.61h.42v.61l-.16.54Z"/><path class="cls-4" d="M293.61,35.3a1,1,0,0,1-.11.47,1.16,1.16,0,0,1-.67.61,1.33,1.33,0,0,1-.49.09H290.2V31.94h2.18a.89.89,0,0,1,.43.11.9.9,0,0,1,.32.26,1.22,1.22,0,0,1,.28.79,1.15,1.15,0,0,1-.17.63,1,1,0,0,1-.48.42,1.15,1.15,0,0,1,.62.43A1.19,1.19,0,0,1,293.61,35.3Zm-3-3V34h1.55a.64.64,0,0,0,.31-.07.76.76,0,0,0,.25-.18.92.92,0,0,0,.16-.27.81.81,0,0,0,.05-.31.88.88,0,0,0-.05-.33.93.93,0,0,0-.15-.26.76.76,0,0,0-.23-.18.6.6,0,0,0-.3-.07Zm2.51,2.9a1,1,0,0,0-.06-.33.92.92,0,0,0-.16-.27.79.79,0,0,0-.25-.19.64.64,0,0,0-.31-.07h-1.73v1.71h1.69a.71.71,0,0,0,.32-.07.83.83,0,0,0,.26-.19,1,1,0,0,0,.18-.27A.91.91,0,0,0,293.16,35.23Z"/><path class="cls-4" d="M294.36,32.45v-.63h.43v.63Zm0,4V33.15h.43v3.32Z"/><path class="cls-4" d="M297.4,33.53a1.4,1.4,0,0,0-.76.24,1.27,1.27,0,0,0-.46.63v2.07h-.43V33.15h.4V34a1.49,1.49,0,0,1,.5-.6,1.12,1.12,0,0,1,.67-.22h.08Z"/><path class="cls-4" d="M298,31.82h.44v3.9a.39.39,0,0,0,.1.29.38.38,0,0,0,.29.1.5.5,0,0,0,.16,0l.18-.05.08.35a1.54,1.54,0,0,1-.3.09l-.3,0a.69.69,0,0,1-.48-.17.65.65,0,0,1-.17-.48Z"/><path class="cls-4" d="M300.55,36.53a1,1,0,0,1-.43-.08.84.84,0,0,1-.35-.22,1,1,0,0,1-.24-.33,1.06,1.06,0,0,1-.08-.4.79.79,0,0,1,.1-.4,1,1,0,0,1,.29-.32,1.38,1.38,0,0,1,.44-.21,2,2,0,0,1,.56-.07,2.92,2.92,0,0,1,.51,0,2.65,2.65,0,0,1,.47.13v-.3a1,1,0,0,0-.25-.7.9.9,0,0,0-.69-.25,1.41,1.41,0,0,0-.52.1,2.38,2.38,0,0,0-.54.29l-.15-.29a2.3,2.3,0,0,1,1.25-.43,1.37,1.37,0,0,1,1,.35,1.32,1.32,0,0,1,.35,1v1.5c0,.12.06.18.16.18v.38l-.16,0a.4.4,0,0,1-.26-.08.33.33,0,0,1-.1-.23v-.27a1.52,1.52,0,0,1-.58.46A1.71,1.71,0,0,1,300.55,36.53Zm.1-.33a1.45,1.45,0,0,0,.63-.13,1,1,0,0,0,.43-.33.57.57,0,0,0,.08-.13.27.27,0,0,0,0-.12V35a2.13,2.13,0,0,0-.45-.13,2.42,2.42,0,0,0-.47,0,1.39,1.39,0,0,0-.75.19.6.6,0,0,0-.29.51.64.64,0,0,0,.06.28.81.81,0,0,0,.17.24.7.7,0,0,0,.25.15A.81.81,0,0,0,300.65,36.2Z"/><path class="cls-4" d="M304.61,34.17a2.3,2.3,0,0,1,.14-.81,2,2,0,0,1,.42-.72,2,2,0,0,1,1.58-.72,1.92,1.92,0,0,1,1,.27,1.57,1.57,0,0,1,.63.72l-.35.21a1.45,1.45,0,0,0-1-.76,1.55,1.55,0,0,0-.37,0,1.42,1.42,0,0,0-.72.17,1.6,1.6,0,0,0-.53.43,1.93,1.93,0,0,0-.32.6,2.25,2.25,0,0,0-.11.68,2,2,0,0,0,.49,1.33,1.64,1.64,0,0,0,.53.42,1.55,1.55,0,0,0,.68.16,1.89,1.89,0,0,0,.39,0,1.61,1.61,0,0,0,.39-.16,1.67,1.67,0,0,0,.35-.26,1.34,1.34,0,0,0,.26-.38l.37.2a1.32,1.32,0,0,1-.3.44,2.3,2.3,0,0,1-.44.33,2.57,2.57,0,0,1-.52.21,2.41,2.41,0,0,1-.53.07,1.76,1.76,0,0,1-.85-.21,2.16,2.16,0,0,1-.67-.53,2.64,2.64,0,0,1-.44-.74A2.55,2.55,0,0,1,304.61,34.17Z"/><path class="cls-4" d="M310.62,36.53a1.59,1.59,0,0,1-.66-.13,1.71,1.71,0,0,1-.53-.38,1.84,1.84,0,0,1-.35-1.88,1.68,1.68,0,0,1,.35-.54,1.5,1.5,0,0,1,.52-.37,1.67,1.67,0,0,1,.67-.14,1.59,1.59,0,0,1,.66.14,1.5,1.5,0,0,1,.52.37,1.9,1.9,0,0,1,.34.54,1.78,1.78,0,0,1,.12.65v.1s0,.06,0,.07h-2.84a1.36,1.36,0,0,0,.12.5,1.39,1.39,0,0,0,.28.39,1.12,1.12,0,0,0,.38.26,1.13,1.13,0,0,0,.45.09,1.17,1.17,0,0,0,.32,0,1.26,1.26,0,0,0,.29-.12,1.55,1.55,0,0,0,.24-.19.79.79,0,0,0,.17-.25l.38.1a1.11,1.11,0,0,1-.22.34,1.23,1.23,0,0,1-.33.26,1.61,1.61,0,0,1-.4.17A1.84,1.84,0,0,1,310.62,36.53Zm1.23-1.9a1.48,1.48,0,0,0-.13-.48,1.19,1.19,0,0,0-.27-.38,1.15,1.15,0,0,0-.37-.25,1.22,1.22,0,0,0-.92,0,1.19,1.19,0,0,0-.38.25,1.16,1.16,0,0,0-.26.38,1.88,1.88,0,0,0-.12.48Z"/><path class="cls-4" d="M315.72,36.47h-.43V34.61a1.6,1.6,0,0,0-.18-.86.62.62,0,0,0-.54-.26,1.06,1.06,0,0,0-.38.07,1.19,1.19,0,0,0-.35.19,1.42,1.42,0,0,0-.29.31,1,1,0,0,0-.19.38v2h-.43V33.15h.39v.75a1.59,1.59,0,0,1,.59-.59,1.68,1.68,0,0,1,.82-.22,1,1,0,0,1,.47.1.76.76,0,0,1,.3.29,1.14,1.14,0,0,1,.17.45,3.64,3.64,0,0,1,.05.6Z"/><path class="cls-4" d="M318.18,36.31l-.11,0-.17.06a1.05,1.05,0,0,1-.21.06,1.15,1.15,0,0,1-.26,0,1.26,1.26,0,0,1-.27,0,.78.78,0,0,1-.22-.12.62.62,0,0,1-.15-.2.61.61,0,0,1-.06-.28V33.49h-.46v-.34h.46V32h.43v1.12h.77v.34h-.77v2.26a.39.39,0,0,0,.13.27.44.44,0,0,0,.27.09.81.81,0,0,0,.33-.07l.18-.08Z"/><path class="cls-4" d="M319.76,36.53a.92.92,0,0,1-.8-.36,1.78,1.78,0,0,1-.27-1.07v-2h.44V35c0,.75.25,1.13.77,1.13a1.19,1.19,0,0,0,.37-.06,1.43,1.43,0,0,0,.62-.47,1.76,1.76,0,0,0,.21-.38V33.15h.43v2.76q0,.18.15.18v.38h-.19a.34.34,0,0,1-.25-.11.38.38,0,0,1-.09-.27v-.38a1.55,1.55,0,0,1-.59.6A1.62,1.62,0,0,1,319.76,36.53Z"/><path class="cls-4" d="M324.17,33.53a1.41,1.41,0,0,0-.77.24,1.33,1.33,0,0,0-.46.63v2.07h-.43V33.15h.41V34a1.42,1.42,0,0,1,.5-.6,1.09,1.09,0,0,1,.66-.22h.09Z"/><path class="cls-4" d="M324.75,32.45v-.63h.43v.63Zm0,4V33.15h.43v3.32Z"/><path class="cls-4" d="M327.55,36.53a1.59,1.59,0,0,1-.66-.13,1.79,1.79,0,0,1-.52-.38,1.55,1.55,0,0,1-.34-.55,1.85,1.85,0,0,1,0-1.31,1.57,1.57,0,0,1,.35-.55,1.57,1.57,0,0,1,1.17-.52,1.59,1.59,0,0,1,.66.14,1.52,1.52,0,0,1,.52.38,1.57,1.57,0,0,1,.35.55,1.85,1.85,0,0,1,0,1.31,1.55,1.55,0,0,1-.34.55,1.79,1.79,0,0,1-.52.38A1.63,1.63,0,0,1,327.55,36.53Zm-1.2-1.71a1.46,1.46,0,0,0,.09.52,1.49,1.49,0,0,0,.26.42,1.17,1.17,0,0,0,.38.29,1.1,1.1,0,0,0,.47.1A1,1,0,0,0,328,36a1.33,1.33,0,0,0,.39-.28,1.41,1.41,0,0,0,.26-.43,1.46,1.46,0,0,0,.09-.52,1.54,1.54,0,0,0-.09-.52,1.49,1.49,0,0,0-.26-.42,1.2,1.2,0,0,0-.39-.29,1.08,1.08,0,0,0-.47-.11,1,1,0,0,0-.46.11,1.24,1.24,0,0,0-.39.29,1.41,1.41,0,0,0-.26.43A1.5,1.5,0,0,0,326.35,34.82Z"/><path class="cls-4" d="M332.72,36.47h-.43V34.61a1.6,1.6,0,0,0-.18-.86.62.62,0,0,0-.54-.26,1.06,1.06,0,0,0-.38.07,1.19,1.19,0,0,0-.35.19,1.42,1.42,0,0,0-.29.31,1,1,0,0,0-.19.38v2h-.43V33.15h.39v.75a1.59,1.59,0,0,1,.59-.59,1.68,1.68,0,0,1,.82-.22,1,1,0,0,1,.47.1.76.76,0,0,1,.3.29,1.14,1.14,0,0,1,.17.45,3.64,3.64,0,0,1,.05.6Z"/><path class="cls-4" d="M333.71,37l.11-.54h-.14v-.61h.42v.61l-.16.54Z"/><path class="cls-4" d="M338.49,32h.42l.64,1.6.65-1.6h.42l-.79,1.93.87,2,1.64-4h.48l-1.92,4.53h-.39l-.95-2.24-1,2.24h-.39l-1.91-4.53h.48l1.64,4,.86-2Z"/><path class="cls-4" d="M344.36,36.53a1.59,1.59,0,0,1-.66-.13,1.79,1.79,0,0,1-.52-.38,1.55,1.55,0,0,1-.34-.55,1.85,1.85,0,0,1,0-1.31,1.73,1.73,0,0,1,.35-.55,1.52,1.52,0,0,1,.52-.38,1.6,1.6,0,0,1,1.31,0,1.66,1.66,0,0,1,.53.38,1.7,1.7,0,0,1,.34.55,1.85,1.85,0,0,1,0,1.31,1.55,1.55,0,0,1-.34.55,1.66,1.66,0,0,1-.52.38A1.63,1.63,0,0,1,344.36,36.53Zm-1.2-1.71a1.46,1.46,0,0,0,.09.52,1.49,1.49,0,0,0,.26.42,1.17,1.17,0,0,0,.38.29,1.1,1.1,0,0,0,.47.1.93.93,0,0,0,.47-.11,1.21,1.21,0,0,0,.39-.28,1.41,1.41,0,0,0,.26-.43,1.46,1.46,0,0,0,.09-.52,1.54,1.54,0,0,0-.09-.52,1.49,1.49,0,0,0-.26-.42,1.11,1.11,0,0,0-.39-.29,1,1,0,0,0-.93,0,1.2,1.2,0,0,0-.38.29,1.26,1.26,0,0,0-.27.43A1.5,1.5,0,0,0,343.16,34.82Z"/><path class="cls-4" d="M348.4,33.53a1.41,1.41,0,0,0-.77.24,1.33,1.33,0,0,0-.46.63v2.07h-.43V33.15h.41V34a1.42,1.42,0,0,1,.5-.6,1.09,1.09,0,0,1,.66-.22h.09Z"/><path class="cls-4" d="M349,31.82h.43v3.9a.39.39,0,0,0,.1.29.38.38,0,0,0,.29.1.5.5,0,0,0,.16,0l.18-.05.08.35a1.54,1.54,0,0,1-.3.09l-.3,0a.64.64,0,0,1-.47-.17.61.61,0,0,1-.17-.48Z"/><path class="cls-4" d="M350.71,32.45v-.63h.43v.63Zm0,4V33.15h.43v3.32Z"/><path class="cls-4" d="M352.17,37l.11-.54h-.15v-.61h.42v.61l-.16.54Z"/><path class="cls-4" d="M301.74,47.09V43.37l-1.65,2.88h-.26l-1.65-2.88v3.72h-.45V42.56h.46l1.77,3.1,1.77-3.1h.46v4.53Z"/><path class="cls-4" d="M304.27,47.15a1,1,0,0,1-.81-.36,1.83,1.83,0,0,1-.26-1.07V43.77h.43v1.87c0,.76.26,1.13.77,1.13a1.21,1.21,0,0,0,.38-.06,1.14,1.14,0,0,0,.34-.19,1.48,1.48,0,0,0,.28-.28,1.72,1.72,0,0,0,.2-.38V43.77H306v2.76q0,.18.15.18v.38H306a.33.33,0,0,1-.25-.11.35.35,0,0,1-.1-.27v-.38a1.48,1.48,0,0,1-.59.6A1.58,1.58,0,0,1,304.27,47.15Z"/><path class="cls-4" d="M312,47.09h-.44V45.24a1.6,1.6,0,0,0-.18-.86.63.63,0,0,0-.55-.27.86.86,0,0,0-.36.07,1,1,0,0,0-.31.19,1.26,1.26,0,0,0-.25.31,1.19,1.19,0,0,0-.17.38v2h-.43V45.24a1.61,1.61,0,0,0-.18-.87.63.63,0,0,0-.55-.26,1,1,0,0,0-.67.26,1.42,1.42,0,0,0-.42.69v2H307V43.77h.39v.75a1.62,1.62,0,0,1,.54-.59,1.26,1.26,0,0,1,.73-.22.93.93,0,0,1,.67.24,1,1,0,0,1,.31.62,1.43,1.43,0,0,1,1.28-.86,1.14,1.14,0,0,1,.48.1.86.86,0,0,1,.31.29,1.26,1.26,0,0,1,.17.46,2.61,2.61,0,0,1,.06.59Z"/><path class="cls-4" d="M314.5,47.15a1.36,1.36,0,0,1-.72-.19,1.69,1.69,0,0,1-.52-.51v.64h-.39V42.44h.44v2a2,2,0,0,1,.53-.54,1.28,1.28,0,0,1,.73-.21,1.33,1.33,0,0,1,.63.15,1.61,1.61,0,0,1,.47.39,1.83,1.83,0,0,1,.3.55,2,2,0,0,1,.1.64,1.84,1.84,0,0,1-.12.66,1.79,1.79,0,0,1-.33.55,1.86,1.86,0,0,1-.5.37A1.44,1.44,0,0,1,314.5,47.15Zm-.1-.38a1.18,1.18,0,0,0,.5-.11,1.27,1.27,0,0,0,.39-.3,1.67,1.67,0,0,0,.25-.43,1.37,1.37,0,0,0,.09-.49,1.64,1.64,0,0,0-.08-.5,1.22,1.22,0,0,0-.25-.43,1,1,0,0,0-.37-.3,1,1,0,0,0-.48-.12,1.11,1.11,0,0,0-.37.07,1.65,1.65,0,0,0-.32.18,1.33,1.33,0,0,0-.26.27,1.44,1.44,0,0,0-.19.31v1a.68.68,0,0,0,.13.32,1.66,1.66,0,0,0,.27.26,1.54,1.54,0,0,0,.34.17A1.12,1.12,0,0,0,314.4,46.77Z"/><path class="cls-4" d="M317.64,47.15a1.08,1.08,0,0,1-.44-.08,1,1,0,0,1-.35-.22,1,1,0,0,1-.23-.32,1.11,1.11,0,0,1-.08-.41.79.79,0,0,1,.1-.4,1,1,0,0,1,.29-.32,1.38,1.38,0,0,1,.44-.21,2.38,2.38,0,0,1,.56-.07,2.94,2.94,0,0,1,.51.05,2.68,2.68,0,0,1,.47.12V45a1,1,0,0,0-.25-.7A.91.91,0,0,0,318,44a1.41,1.41,0,0,0-.52.1,2.38,2.38,0,0,0-.54.29l-.16-.28a2.26,2.26,0,0,1,1.25-.44,1.37,1.37,0,0,1,1,.35,1.34,1.34,0,0,1,.35,1v1.5c0,.12.06.18.16.18v.38l-.16,0a.4.4,0,0,1-.26-.08.33.33,0,0,1-.1-.23v-.26a1.5,1.5,0,0,1-.58.45A1.71,1.71,0,0,1,317.64,47.15Zm.1-.33a1.41,1.41,0,0,0,.62-.13.92.92,0,0,0,.43-.33.38.38,0,0,0,.09-.13.27.27,0,0,0,0-.12v-.54a2.68,2.68,0,0,0-.93-.18,1.29,1.29,0,0,0-.74.2.57.57,0,0,0-.29.5.72.72,0,0,0,.06.29.91.91,0,0,0,.17.23.7.7,0,0,0,.25.15A.81.81,0,0,0,317.74,46.82Z"/><path class="cls-4" d="M320.28,43.08v-.64h.43v.64Zm0,4V43.77h.43v3.32Z"/></g></g></svg>