<?xml version="1.0" encoding="utf-8"?>
<!-- Generator: Adobe Illustrator 25.1.0, SVG Export Plug-In . SVG Version: 6.00 Build 0)  -->
<svg version="1.1" id="Layer_1" xmlns="http://www.w3.org/2000/svg" xmlns:xlink="http://www.w3.org/1999/xlink" x="0px" y="0px"
	 viewBox="0 0 70 65.2" style="enable-background:new 0 0 70 65.2;" xml:space="preserve">
<path d="M65.9,16.5H43.5V9.9c0-4.1-3.3-7.4-7.4-7.4s-7.4,3.3-7.4,7.4v6.6H4.1c-1.2,0-2.1,0.9-2.1,2.1v41.6c0,1.2,0.9,2.1,2.1,2.1
	h61.8c1.2,0,2.1-0.9,2.1-2.1V18.7C68,17.5,67.1,16.5,65.9,16.5z M36.1,4.5c3,0,5.4,2.4,5.4,5.4v7.6c0,0,0,0,0,0s0,0,0,0v1.6H30.8
	v-1.6c0,0,0,0,0,0s0,0,0,0V9.9C30.8,7,33.2,4.5,36.1,4.5z M66,60.3c0,0.1-0.1,0.1-0.1,0.1H4.1C4,60.4,4,60.3,4,60.3V18.7
	c0-0.1,0-0.1,0.1-0.1h24.7v1.6c0,0.6,0.4,1,1,1h12.8c0.6,0,1-0.4,1-1v-1.6h22.4c0.1,0,0.1,0.1,0.1,0.1V60.3z"/>
<path d="M15.3,43.7h9.6c0.6,0,1-0.4,1-1v-3.3c0-1.9-1.5-3.4-3.4-3.4h-4.7c-1.9,0-3.4,1.5-3.4,3.4v3.3C14.3,43.3,14.7,43.7,15.3,43.7
	z M16.3,39.5c0-0.8,0.6-1.4,1.4-1.4h4.7c0.8,0,1.4,0.6,1.4,1.4v2.3h-7.6V39.5z"/>
<path d="M20.1,35.3c2,0,3.7-1.6,3.7-3.7S22.1,28,20.1,28s-3.7,1.6-3.7,3.7S18,35.3,20.1,35.3z M20.1,30c0.9,0,1.7,0.7,1.7,1.7
	c0,0.9-0.7,1.7-1.7,1.7s-1.7-0.7-1.7-1.7C18.4,30.7,19.1,30,20.1,30z"/>
<path d="M31.6,46.4V25.3c0-0.6-0.4-1-1-1H9.5c-0.6,0-1,0.4-1,1v21.1c0,0.6,0.4,1,1,1h21.1C31.2,47.4,31.6,47,31.6,46.4z M29.6,45.4
	H10.5V26.3h19.1V45.4z"/>
<path d="M60.5,24.3H38.1c-0.6,0-1,0.4-1,1s0.4,1,1,1h22.4c0.6,0,1-0.4,1-1S61.1,24.3,60.5,24.3z"/>
<path d="M60.5,33.7H38.1c-0.6,0-1,0.4-1,1s0.4,1,1,1h22.4c0.6,0,1-0.4,1-1S61.1,33.7,60.5,33.7z"/>
<path d="M60.5,43.2H38.1c-0.6,0-1,0.4-1,1s0.4,1,1,1h22.4c0.6,0,1-0.4,1-1S61.1,43.2,60.5,43.2z"/>
<path d="M60.5,52.7H12.9c-0.6,0-1,0.4-1,1s0.4,1,1,1h47.6c0.6,0,1-0.4,1-1S61.1,52.7,60.5,52.7z"/>
<path d="M36.1,12.6c1.7,0,3.1-1.4,3.1-3.1s-1.4-3.1-3.1-3.1S33,7.8,33,9.5S34.4,12.6,36.1,12.6z M36.1,8.4c0.6,0,1.1,0.5,1.1,1.1
	s-0.5,1.1-1.1,1.1S35,10.1,35,9.5S35.5,8.4,36.1,8.4z"/>
</svg>
