<svg xmlns="http://www.w3.org/2000/svg" xmlns:xlink="http://www.w3.org/1999/xlink" viewBox="0 0 179.41 37.02"><defs><style>.cls-1{fill:none;}.cls-2{clip-path:url(#clip-path);}.cls-3{fill:#212123;}.cls-4{fill:#0142ff;}</style><clipPath id="clip-path" transform="translate(-36 -36)"><rect class="cls-1" width="252" height="109.5"/></clipPath></defs><g id="Layer_2" data-name="Layer 2"><g id="Layer_1-2" data-name="Layer 1"><g class="cls-2"><path class="cls-3" d="M200.61,56.43,190,57.36a2.06,2.06,0,0,0-2,2.19v3.28a2.61,2.61,0,0,0,1.48,2.43,7.87,7.87,0,0,0,3.84.82,6.49,6.49,0,0,0,5.34-2.41,8.79,8.79,0,0,0,2-5.53V56.43ZM107,56.5l-10.61.93a2,2,0,0,0-2,2.19v3.27a2.63,2.63,0,0,0,1.49,2.44,8,8,0,0,0,3.84.81,6.51,6.51,0,0,0,5.34-2.4,8.93,8.93,0,0,0,2-5.53V56.5ZM176,36.07v6.84l-18.7,22.37h19.19v6.88h-29.8V65.28l18.49-22.37H147.94V36.07Zm-30.82,0V43h-11.3V72.16H125V36.07Zm-60.79,0L71.47,52.35l14,19.81H75.65L61.79,52.35l12.1-16.28Zm-22.71,0V72.16H52.8V36.07ZM209.33,36V65.21h6.08v6.88H201.1v-5.6A12.75,12.75,0,0,1,197,71.21,11.87,11.87,0,0,1,190.21,73a12.12,12.12,0,0,1-4.55-.83,11.46,11.46,0,0,1-3.61-2.32,10.28,10.28,0,0,1-2.4-3.49,11.39,11.39,0,0,1-.85-4.5,10.58,10.58,0,0,1,3-7.57q2.94-3.07,8.42-3.66l.36,0,10-.83.49-.36V42.91H181.84V36Zm-93.59.07V65.28h6.09v6.88H107.52v-5.6a12.65,12.65,0,0,1-4.14,4.71A11.76,11.76,0,0,1,96.63,73a12.12,12.12,0,0,1-4.55-.83,11,11,0,0,1-3.61-2.32,10.35,10.35,0,0,1-2.41-3.49,11.48,11.48,0,0,1-.84-4.49,10.56,10.56,0,0,1,3-7.57q2.94-3.07,8.41-3.66l.37,0,10-.83.49-.37V43H88.26V36.07Z" transform="translate(-36 -36)"/><path class="cls-4" d="M46.2,72.16V62H36v10.2Zm0-25.93V36.07H36V46.23Z" transform="translate(-36 -36)"/></g></g></g></svg>