<?xml version="1.0" encoding="utf-8"?>
<!-- Generator: Adobe Illustrator 25.1.0, SVG Export Plug-In . SVG Version: 6.00 Build 0)  -->
<svg version="1.1" id="Layer_1" xmlns="http://www.w3.org/2000/svg" xmlns:xlink="http://www.w3.org/1999/xlink" x="0px" y="0px"
	 viewBox="0 0 512 520.7" style="enable-background:new 0 0 512 520.7;" xml:space="preserve">
<style type="text/css">
	.st0{fill:#1C7F00;}
</style>
<path class="st0" d="M204,128.3c22.2,0.8,43.4,9.2,60.1,23.9l13.4-13.5c-20.1-18.4-46.2-28.8-73.5-29.5V128.3z"/>
<path class="st0" d="M192,320.2c-20.4-1.8-39.7-10.2-55-23.8l-13.6,13.5c19,17.2,43.1,27.5,68.6,29.4V320.2z"/>
<path class="st0" d="M285,224.4c0-46.5-37.7-84.1-84.1-84.1s-84.1,37.7-84.1,84.1c0,46.5,37.7,84.1,84.1,84.1l0,0
	C247.3,308.5,285,270.9,285,224.4z M174.5,225.7c0.9-2.3,3.1-3.7,5.6-3.7h12.5c4.8,0,9.1-2,11.2-6h-23.7c-3.3,0-6-2.7-6-6s2.7-6,6-6
	h23.7c-2.2-4.2-6.5-6.9-11.2-7h-12.5c-3.3,0-6-2.7-6-6s2.7-6,6-6h43.6c3.3,0,6,2.7,6,6s-2.7,6-6,6h-10c1.4,2.1,2.3,4.5,2.8,7h7.2
	c3.3,0,6,2.7,6,6s-2.7,6-6,6h-7.2c-2.6,10-11.2,17.3-21.5,18.1l20.4,18.9c2.4,2.2,2.5,6,0.3,8.4c-1.1,1.2-2.7,1.9-4.4,1.9
	c-1.5,0-3-0.6-4.1-1.7L176,232.2C174.2,230.6,173.6,228,174.5,225.7L174.5,225.7z"/>
<path class="st0" d="M286.4,147.5l-13.5,13.6c14.7,16.6,23.2,37.7,24.1,59.9h19C315.3,193.7,304.8,167.6,286.4,147.5z"/>
<path class="st0" d="M315.8,233h-19.1c-1.8,20.7-10.3,40.3-24.2,55.8l13.5,13.6C303.4,283.2,313.9,258.8,315.8,233z"/>
<path class="st0" d="M263.7,297c-16.6,14.5-37.7,22.8-59.7,23.5v19.1c27-0.8,52.9-11.1,73-29.1L263.7,297z"/>
<path class="st0" d="M128.8,288.3c-13.6-15.4-21.9-34.8-23.7-55.3H86c1.9,25.5,12.2,49.6,29.3,68.6L128.8,288.3z"/>
<path class="st0" d="M369,287.1c-7.5,0-13.5,6-13.5,13.5s6,13.5,13.5,13.5s13.5-6,13.5-13.5l0,0C382.4,293.2,376.4,287.1,369,287.1z
	"/>
<path class="st0" d="M104.8,221c0.8-21.9,9.1-42.9,23.5-59.4l-13.5-13.4c-17.9,20.1-28.2,45.8-29.1,72.7L104.8,221L104.8,221z"/>
<path class="st0" d="M136.4,152.8c15.4-13.8,34.9-22.3,55.6-24.2v-19.1c-25.7,2-49.9,12.5-69,29.8L136.4,152.8z"/>
<path class="st0" d="M430.9,290.9c-11.1-23.2-31.9-44-59.7-60.1c-1.9-1.1-3.1-3-3.2-5.2v-50.4l-31.8,35.9c-1.5,1.8-3.9,2.4-6.2,1.7
	c-0.9-0.3-1.8-0.6-2.6-0.8c0.4,4.1,0.6,8.2,0.6,12.3c0,70.2-56.9,127.2-127.2,127.2c-52,0-98.8-31.7-118.1-80
	c-13.1,17.2-20.4,36.3-21.4,55.4c-0.6-0.1-1.3-0.1-1.9-0.1h-25c-3.3,0-6,2.7-6,6s2.7,6,6,6h25c0.7-0.1,1.4-0.3,2-0.6
	c2.7,37.7,27.9,72.1,70.6,95.3c1.9,1,3,3,2.9,5.1V500h44v-39.6c0.2-3.5,3.2-6.2,6.8-6c0.3,0,0.7,0.1,1,0.1c41.9,10,85.5,10,127.3,0
	c1.7-0.4,3.5,0,4.9,1.1c1.4,1.2,2.1,2.9,2,4.7V500h44v-61.1c0.1-2.2,1.4-4.2,3.3-5.2c28.8-16,50.2-36.8,61.8-60.4
	c0.8-1.8,2.5-3.1,4.5-3.3l48.3-5.7v-64.8l-47.4-5.1C433.5,294.1,431.8,292.8,430.9,290.9z M369,326.1c-14.1,0-25.5-11.4-25.5-25.5
	s11.4-25.5,25.5-25.5s25.5,11.4,25.5,25.5l0,0C394.4,314.7,383,326.1,369,326.1L369,326.1z"/>
<path class="st0" d="M198,12.5c-3.3,0-6,2.7-6,6v59c0,3.3,2.7,6,6,6s6-2.7,6-6v-59C204,15.2,201.3,12.5,198,12.5z"/>
<path class="st0" d="M243,77.5v-40c0-3.3-2.7-6-6-6s-6,2.7-6,6v40c0,3.3,2.7,6,6,6S243,80.8,243,77.5z"/>
<path class="st0" d="M166,77.5v-40c0-3.3-2.7-6-6-6s-6,2.7-6,6v40c0,3.3,2.7,6,6,6S166,80.8,166,77.5z"/>
<path class="st0" d="M271,87.5v-31c0-3.3-2.7-6-6-6s-6,2.7-6,6v31c0,3.3,2.7,6,6,6S271,90.8,271,87.5z"/>
<path class="st0" d="M137,87.5v-31c0-3.3-2.7-6-6-6s-6,2.7-6,6v31c0,3.3,2.7,6,6,6S137,90.8,137,87.5z"/>
</svg>
