<svg xmlns="http://www.w3.org/2000/svg" viewBox="0 0 66.67 56.41"><defs><style>.cls-1{fill:#1c7f00;}</style></defs><g id="Layer_2" data-name="Layer 2"><g id="Layer_1-2" data-name="Layer 1"><path class="cls-1" d="M66.67,36.56a.58.58,0,0,0-.29-.51l-2-1.14,2-1.11a.59.59,0,0,0,0-1l-9.12-5.26L64,23.63a.57.57,0,0,0,.3-.51.59.59,0,0,0-.3-.51L62,21.5l2-1.13a.59.59,0,0,0,.3-.52.61.61,0,0,0-.3-.51l-2-1.11,2-1.13a.59.59,0,0,0,0-1L62,15l2-1.13a.59.59,0,0,0,.3-.52.61.61,0,0,0-.3-.51L41.47.08a.57.57,0,0,0-.59,0L.3,23.48a.58.58,0,0,0,0,1l2,1.11-2,1.14a.57.57,0,0,0-.3.51.59.59,0,0,0,.3.51l2,1.11L.3,30a.59.59,0,0,0,0,1l2,1.11-2,1.13a.59.59,0,0,0,0,1L22.82,47a.64.64,0,0,0,.58,0L25.27,46l18,10.37a.56.56,0,0,0,.3.08.59.59,0,0,0,.29-.07L66.37,43.61a.58.58,0,0,0,.3-.51.61.61,0,0,0-.29-.52l-2-1.13,2-1.11a.59.59,0,0,0,0-1l-2-1.14,2-1.11A.57.57,0,0,0,66.67,36.56Zm-1.78-3.28-21.32,12-8.61-5,5.23-3a1.09,1.09,0,0,0,.17,0l8.22-4.72a1.06,1.06,0,0,0,.15-.15l7.35-4.24ZM62.51,23.13,48.87,31V29.08l12-6.89Zm0-3.27L48.87,27.72V25.81l12-6.9Zm0-3.27L48.87,24.45V22.54l12-6.9ZM41.18,1.27,62.51,13.32,48.25,21.54,26.93,9.48ZM1.78,24l15.73-9.07L38.84,27,23.11,36Zm0,3.27,1.68-1L22.82,37.23a.59.59,0,0,0,.29.07.56.56,0,0,0,.3-.08L39.47,28v1.91L23.11,39.31Zm0,3.27,1.68-1,19.36,11a.59.59,0,0,0,.29.07.54.54,0,0,0,.3-.08l16.06-9.26v1.91L23.11,42.57ZM23.11,45.85,1.78,33.79l1.68-1L22.82,43.76a.6.6,0,0,0,.29.08.61.61,0,0,0,.3-.08L39.48,34.5v1.91Zm41.78-2.76-21.32,12L26.45,45.28l1.66-1,15.16,8.74a.57.57,0,0,0,.58,0L63.22,42.12Zm0-3.27-21.32,12L29.29,43.64l1.66-1,12.32,7.1a.51.51,0,0,0,.29.08.59.59,0,0,0,.29-.07L63.22,38.85ZM43.57,48.6,32.12,42l1.66-1,9.49,5.47a.6.6,0,0,0,.29.08.51.51,0,0,0,.29-.08L63.22,35.58l1.67,1Z"/><path class="cls-1" d="M9.9,20.63l.51.3-1.68,1a3.39,3.39,0,0,1,1.61.28l1.12-.65.52.3-1.11.64c.93.66.76,1.52-.51,2.31,1.62,0,3.53.11,5.45.23l-1,.57c-1.77-.1-3.4-.19-5.38-.22L8.82,25l.56-.32c1.11-.64,1.24-1.25.61-1.7L7.66,24.32,7.15,24l2.31-1.33a2.94,2.94,0,0,0-2.48.4l-.72.42-.67-.39Z"/></g></g></svg>